<svg width="222" height="102" fill="none" xmlns="http://www.w3.org/2000/svg"><path opacity=".6" d="M1 1l24.444 24.528L49.89 1l24.444 24.528L98.778 1l24.444 24.528L147.667 1l24.444 24.528L196.556 1 221 25.528M1 19.868l24.444 24.528L49.89 19.868l24.444 24.528 24.445-24.528 24.444 24.528 24.445-24.528 24.444 24.528 24.445-24.528L221 44.396M1 38.736l24.444 24.528L49.89 38.736l24.444 24.528 24.445-24.528 24.444 24.528 24.445-24.528 24.444 24.528 24.445-24.528L221 63.264M1 57.604l24.444 24.528L49.89 57.604l24.444 24.528 24.445-24.528 24.444 24.528 24.445-24.528 24.444 24.528 24.445-24.528L221 82.132M1 76.472L25.444 101 49.89 76.472 74.333 101l24.445-24.528L123.222 101l24.445-24.528L172.111 101l24.445-24.528L221 101" stroke="#CDC2B6"/></svg>