<svg width="22" height="22" fill="none" xmlns="http://www.w3.org/2000/svg"><path fill-rule="evenodd" clip-rule="evenodd" d="M1.407 1.407C2.075.74 3.007.25 4 .25h14c.994 0 1.925.49 2.593 1.157.668.668 1.157 1.6 1.157 2.593v14c0 .994-.49 1.925-1.157 2.593-.668.668-1.6 1.157-2.593 1.157H4c-.994 0-1.925-.49-2.593-1.157C.74 19.925.25 18.993.25 18V4c0-.994.49-1.925 1.157-2.593zm1.06 1.06C2.012 2.926 1.75 3.495 1.75 4v14c0 .506.26 1.075.718 1.532.457.457 1.026.718 1.532.718h14c.506 0 1.075-.26 1.532-.718.457-.457.718-1.026.718-1.532V4c0-.506-.26-1.075-.718-1.532-.457-.457-1.026-.718-1.532-.718H4c-.506 0-1.075.26-1.532.718zM17 4.75a.25.25 0 100 .5.25.25 0 000-.5zM15.25 5a1.75 1.75 0 113.5 0 1.75 1.75 0 01-3.5 0zM11 6.75a4.25 4.25 0 100 8.5 4.25 4.25 0 000-8.5zM5.25 11a5.75 5.75 0 1111.5 0 5.75 5.75 0 01-11.5 0z" fill="url(#paint0_angular)"/><path fill-rule="evenodd" clip-rule="evenodd" d="M1.407 1.407C2.075.74 3.007.25 4 .25h14c.994 0 1.925.49 2.593 1.157.668.668 1.157 1.6 1.157 2.593v14c0 .994-.49 1.925-1.157 2.593-.668.668-1.6 1.157-2.593 1.157H4c-.994 0-1.925-.49-2.593-1.157C.74 19.925.25 18.993.25 18V4c0-.994.49-1.925 1.157-2.593zm1.06 1.06C2.012 2.926 1.75 3.495 1.75 4v14c0 .506.26 1.075.718 1.532.457.457 1.026.718 1.532.718h14c.506 0 1.075-.26 1.532-.718.457-.457.718-1.026.718-1.532V4c0-.506-.26-1.075-.718-1.532-.457-.457-1.026-.718-1.532-.718H4c-.506 0-1.075.26-1.532.718zM17 4.75a.25.25 0 100 .5.25.25 0 000-.5zM15.25 5a1.75 1.75 0 113.5 0 1.75 1.75 0 01-3.5 0zM11 6.75a4.25 4.25 0 100 8.5 4.25 4.25 0 000-8.5zM5.25 11a5.75 5.75 0 1111.5 0 5.75 5.75 0 01-11.5 0z" fill="url(#paint1_linear)"/><path fill-rule="evenodd" clip-rule="evenodd" d="M1.407 1.407C2.075.74 3.007.25 4 .25h14c.994 0 1.925.49 2.593 1.157.668.668 1.157 1.6 1.157 2.593v14c0 .994-.49 1.925-1.157 2.593-.668.668-1.6 1.157-2.593 1.157H4c-.994 0-1.925-.49-2.593-1.157C.74 19.925.25 18.993.25 18V4c0-.994.49-1.925 1.157-2.593zm1.06 1.06C2.012 2.926 1.75 3.495 1.75 4v14c0 .506.26 1.075.718 1.532.457.457 1.026.718 1.532.718h14c.506 0 1.075-.26 1.532-.718.457-.457.718-1.026.718-1.532V4c0-.506-.26-1.075-.718-1.532-.457-.457-1.026-.718-1.532-.718H4c-.506 0-1.075.26-1.532.718zM17 4.75a.25.25 0 100 .5.25.25 0 000-.5zM15.25 5a1.75 1.75 0 113.5 0 1.75 1.75 0 01-3.5 0zM11 6.75a4.25 4.25 0 100 8.5 4.25 4.25 0 000-8.5zM5.25 11a5.75 5.75 0 1111.5 0 5.75 5.75 0 01-11.5 0z" fill="url(#paint2_linear)"/><defs><linearGradient id="paint1_linear" x1="1" y1="23" x2="21" y2="2.5" gradientUnits="userSpaceOnUse"><stop stop-color="#FFD253"/><stop offset=".377" stop-color="#F24D58"/><stop offset="1" stop-color="#AF30BB"/></linearGradient><linearGradient id="paint2_linear" x1="1" y1="2.5" x2="8" y2="13.5" gradientUnits="userSpaceOnUse"><stop stop-color="#4069CA"/><stop offset="1" stop-color="#A839AB" stop-opacity="0"/></linearGradient><radialGradient id="paint0_angular" cx="0" cy="0" r="1" gradientUnits="userSpaceOnUse" gradientTransform="rotate(46.975 -7.157 18.157) scale(10.2591)"><stop stop-color="#F04C5C"/><stop offset=".25" stop-color="#FFD253"/><stop offset=".397" stop-color="#F24D58"/><stop offset=".505" stop-color="#4069CA"/><stop offset=".734" stop-color="#AF30BB"/><stop offset=".849" stop-color="#CB39A5"/><stop offset="1" stop-color="#E94869"/></radialGradient></defs></svg>