<svg width="31" height="38" fill="none" xmlns="http://www.w3.org/2000/svg"><path d="M24.33 10.64c0 .088 0 .073 0 0zM23.822 7.372a7.776 7.776 0 01.367.486l1.497-1.066c.598-.817 1.036-1.814.834-2.847l-.002-.01c-.123-.632-.27-1.379-.66-1.91-.416-.569-.712-1.3-1.555-1.187-.824.11-1.08 1.142-1.232 1.789-.188.797-.23 1.375-.049 2.169.08.347.08.717.194 1.055.082.242.187.453.245.704.064.278.203.555.361.817z" fill="#FFBE5D"/><path d="M24.669 11.151c1.015.14 2.339.196 3.226-.395.602-.402.9-.967 1.316-1.52.112-.15.158-.248.22-.442.147-.452.323-.886.323-1.364 0-.309-.048-.615-.048-.926 0-.419-.555-.68-.91-.68-.412 0-.815.062-1.226.1-.834.075-1.588.767-2.045 1.417-.499.709-.894 1.473-1.12 2.312-.06.226-.073.799-.075.986v-.004c0-.54.048-1.08.048-1.62 0-.361.02-.837-.19-1.157a6.063 6.063 0 00-1.067-1.21 1.837 1.837 0 00-.879-.426c-.334-.067-.63-.248-.974-.312-.386-.073-.755-.07-1.144-.09-.231-.01-.523-.108-.756-.042-.098.028-.078.417-.064.492.071.394.189.77.366 1.13.357.727.802 1.44 1.39 2.008.52.5 1.032.883 1.677 1.2.455.223.854.418 1.35.532.044.01.375.077.243.011h.339z" fill="#FFBE5D"/><path d="M24.766 17.012c.654-.1 1.243-.172 1.867-.388.288-.1.785-.223.99-.463.533-.62.858-1.366 1.357-2.007.316-.406.518-.96.578-1.472.043-.366.081-.782-.264-.974-.899-.5-2.206-.29-3.15.024-.775.259-.998 1.295-1.233 1.986-.23.679-.29 1.397-.29 2.11v.602c0 .43-.005-.866-.1-1.286-.171-.757-.454-1.463-.8-2.152-.306-.615-1.1-.769-1.622-1.117-.515-.344-1.152-.41-1.751-.492-.296-.041-.557-.067-.84.035-1.376.495.065 2.532.678 3.145.697.697 1.685 1.04 2.53 1.501.55.301 1.242.457 1.76.802l.29.146zM24.766 22.727c1.1-.196 2.512-.314 3.353-1.173.355-.364.615-1.002.737-1.491.192-.77.366-1.5.366-2.3 0-.672-1.23-.779-1.685-.644a3.54 3.54 0 00-.906.395c.049-.01.081-.013.072-.007a8.62 8.62 0 00-.462.311c-.056.053-.11.108-.162.164l-.032.05c-.181.263-.379.514-.572.768-.257.398-.535.855-.683 1.087-.022.16-.04.325-.076.484.066.33.044.662.002 1-.024.19-.077.403-.157.58-.027.062-.093.27-.086.087.017-.432.014-1.018.17-1.424.03-.078.053-.16.071-.243a1.93 1.93 0 00-.036-.152c-.084-.292-.07-.524-.264-.786-.315-.424-.705-.712-1.149-.993a6.773 6.773 0 00-2.252-.917c-.44-.088-.822-.29-1.238-.439-.282-.1-.349.046-.339.304.013.328.205.672.24 1.001.037.358.213.741.411 1.039.285.426.495.865.85 1.24.367.387.764.717 1.152 1.08.323.301.82.49 1.225.667.135.059.991.266.966.215l.484.097zM9.66 13.127c.033.082.026.068 0 0zM7.974 10.282a7.725 7.725 0 01.52.315l.994-1.546c.252-.98.288-2.07-.283-2.953l-.006-.009c-.35-.54-.763-1.18-1.323-1.528-.598-.373-1.145-.941-1.885-.523-.724.408-.578 1.462-.479 2.119.122.81.298 1.361.761 2.031.203.293.34.636.572.907.167.194.342.352.49.564.162.233.395.438.639.623z" fill="#FFBE5D"/><path d="M10.165 13.476c.994-.247 2.244-.688 2.848-1.567.41-.596.476-1.232.656-1.9.048-.18.054-.288.04-.492-.03-.474-.029-.942-.207-1.386-.115-.287-.273-.553-.389-.841-.156-.39-.768-.426-1.097-.294-.383.153-.734.36-1.102.548-.746.38-1.189 1.304-1.371 2.077-.2.843-.282 1.699-.18 2.562.027.233.229.769.297.944l-.002-.005c-.2-.5-.356-1.02-.557-1.521-.134-.336-.294-.785-.607-1.004a6.068 6.068 0 00-1.44-.727 1.837 1.837 0 00-.975-.068c-.334.062-.677.004-1.02.072-.385.077-.726.216-1.095.343-.219.075-.527.093-.718.241-.08.063.083.416.123.481.213.34.462.645.76.913.602.543 1.28 1.04 2.038 1.347.668.27 1.285.436 2.002.49.506.039.948.071 1.452-.007.044-.007.377-.068.229-.08l.315-.126z" fill="#FFBE5D"/><path d="M12.433 18.88c.57-.336 1.09-.622 1.59-1.054.23-.199.645-.499.747-.797.263-.775.288-1.588.513-2.368.142-.495.124-1.084-.01-1.581-.096-.356-.216-.757-.607-.807-1.021-.13-2.156.55-2.916 1.194-.624.528-.445 1.573-.406 2.302.038.715.25 1.404.514 2.066l.224.56c.16.399-.326-.803-.57-1.157-.44-.64-.966-1.19-1.542-1.701-.514-.457-1.307-.305-1.922-.434-.606-.127-1.222.048-1.809.194-.29.072-.542.145-.766.345-1.094.971 1.001 2.326 1.799 2.668.905.387 1.95.338 2.906.453.622.075 1.323-.038 1.931.09l.324.027zM14.558 24.186c.947-.59 2.215-1.225 2.676-2.336.195-.47.199-1.158.13-1.658-.107-.786-.218-1.528-.515-2.271-.25-.624-1.43-.266-1.803.029-.28.221-.51.446-.695.703.042-.027.071-.042.065-.033a8.627 8.627 0 00-.313.46c-.033.07-.062.141-.09.213-.003.02-.007.039-.012.058-.07.312-.16.619-.245.926-.09.464-.179.993-.23 1.263.04.156.083.316.11.477.183.282.286.598.373.928.048.186.08.403.07.597-.002.067.015.285-.047.112-.145-.407-.366-.95-.372-1.384a1.71 1.71 0 00-.024-.253 1.911 1.911 0 00-.09-.127c-.186-.24-.26-.46-.537-.632-.45-.276-.92-.398-1.436-.494a6.772 6.772 0 00-2.432-.015c-.441.082-.87.037-1.312.053-.3.012-.307.173-.202.409.134.3.44.547.595.84.168.317.473.608.768.81.422.291.78.62 1.25.836.485.223.976.381 1.47.574.413.16.945.15 1.385.164.148.005 1.02-.121.977-.16l.486-.09z" fill="#FFBE5D"/><path d="M25.444.743L24.92.184a.563.563 0 00-.834 0l-.523.559c-1.287 1.374-1.642 3.217-1.328 4.795a4.15 4.15 0 00-1.542-.295h-1.1c-.326 0-.59.281-.59.629v1.174a4.83 4.83 0 001.289 3.321c.214.229.446.43.693.605a4.23 4.23 0 00-.292-.01h-1.1c-.326 0-.59.281-.59.629v1.174a4.83 4.83 0 001.289 3.321c.214.229.446.43.693.605a4.11 4.11 0 00-.292-.01h-1.1a.571.571 0 00-.417.183.651.651 0 00-.173.445v1.175c0 2.567 1.944 4.697 4.4 4.697h.51v11.19c0 .347.264.629.59.629.325 0 .59-.282.59-.63V23.182h.51c1.175 0 2.28-.489 3.111-1.376a4.816 4.816 0 001.289-3.32v-1.176a.651.651 0 00-.173-.445.571.571 0 00-.416-.184h-1.101c-.098 0-.195.004-.292.01.247-.173.48-.375.693-.604a4.833 4.833 0 001.289-3.32V11.59c0-.347-.264-.629-.59-.629h-1.1c-.098 0-.195.004-.292.01.247-.173.48-.375.693-.603a4.833 4.833 0 001.289-3.322V5.872c0-.348-.264-.63-.59-.63h-1.1c-.535 0-1.056.102-1.543.296.314-1.577-.038-3.419-1.327-4.795zm-5.261 6.303v-.545h.51c1.78 0 3.222 1.536 3.221 3.439v.545h-.51c-1.764 0-3.222-1.522-3.221-3.439zm2.929 4.687c.096.006.194.01.292.01h2.2c.098 0 .195-.003.292-.01a4.648 4.648 0 00-1.392 1.573 4.648 4.648 0 00-1.392-1.573zm-2.93 1.032v-.545h.512c1.778 0 3.22 1.536 3.22 3.438v.545h-.51c-1.763 0-3.222-1.52-3.221-3.438zm2.93 4.687c.096.006.194.01.291.01h2.201c.098 0 .195-.003.292-.01a4.647 4.647 0 00-1.392 1.573 4.647 4.647 0 00-1.392-1.573zm.802 3.925v.546h-.51c-1.763 0-3.222-1.522-3.221-3.439v-.545h.51c1.78 0 3.222 1.536 3.221 3.438zm4.911-2.893c0 .919-.335 1.782-.943 2.431-.255.272-1.023 1.007-2.278 1.008h-.51v-.546c0-1.899 1.438-3.438 3.22-3.438h.511v.545zm0-5.719c0 1.886-1.428 3.438-3.22 3.439h-.512v-.546c0-1.899 1.44-3.438 3.221-3.438h.511v.545zm-.511-6.264h.511v.545c0 1.886-1.428 3.439-3.22 3.439h-.512v-.546c0-1.899 1.44-3.438 3.221-3.438zm-3.704.75l-.106.114-.107-.114c-1.455-1.554-1.452-4.067 0-5.618l.107-.114.106.114c1.465 1.563 1.442 4.079 0 5.618zM4.659 3.936l.294-.722a.595.595 0 01.8-.321l.711.32c1.75.787 2.78 2.37 3.068 3.963a4.406 4.406 0 011.37-.869l1.057-.423a.621.621 0 01.802.36l.438 1.096c.47 1.17.47 2.446.004 3.594-.12.296-.268.573-.44.83.09-.043.182-.084.277-.121l1.056-.424a.622.622 0 01.802.36l.438 1.097c.47 1.17.47 2.446.004 3.594-.12.296-.268.573-.44.83.09-.043.182-.084.276-.121l1.057-.424a.599.599 0 01.47.012c.15.067.269.193.331.348l.44 1.096c.959 2.395-.113 5.131-2.471 6.075l-.49.197 4.18 10.44a.621.621 0 01-.33.814.621.621 0 01-.802-.36l-4.181-10.44-.49.196a4.443 4.443 0 01-3.503-.087 4.773 4.773 0 01-2.479-2.603l-.439-1.096a.644.644 0 010-.482.599.599 0 01.331-.332l1.057-.423c.094-.038.19-.072.285-.103a4.629 4.629 0 01-.892-.297 4.781 4.781 0 01-2.479-2.603l-.438-1.096a.622.622 0 01.33-.814l1.057-.423c.094-.038.19-.072.285-.103a4.643 4.643 0 01-.892-.297 4.781 4.781 0 01-2.479-2.603l-.438-1.096a.621.621 0 01.33-.814l1.058-.423a4.409 4.409 0 011.592-.317c-.89-1.351-1.241-3.205-.517-4.985zm7.408 3.857l-.204-.509-.49.197c-1.709.684-2.52 2.672-1.809 4.447l.204.509.49-.197c1.694-.678 2.526-2.659 1.81-4.447zm-1.062 5.5c-.09.043-.182.084-.276.121l-2.114.847a4.544 4.544 0 01-.284.103c.934.208 1.588.66 1.925.932.056-.43.218-1.209.75-2.003zm3.2-.164L14 12.62l-.491.197c-1.708.684-2.52 2.672-1.809 4.447l.204.509.49-.197c1.694-.678 2.526-2.659 1.81-4.447zm-1.063 5.5c-.09.043-.182.084-.276.121l-2.114.847a4.49 4.49 0 01-.284.102c.934.209 1.588.66 1.925.933a4.71 4.71 0 01.75-2.004zm.696 3.97l.204.51.49-.197c1.694-.678 2.526-2.659 1.81-4.447l-.204-.509-.491.197c-1.709.683-2.52 2.672-1.809 4.447zm-5.797-.81a3.5 3.5 0 001.814 1.906 3.263 3.263 0 002.564.064l.49-.197-.203-.509c-.71-1.772-2.667-2.654-4.378-1.97l-.491.197.204.51zm-2.137-5.336c.705 1.76 2.656 2.66 4.378 1.97l.49-.197-.203-.509c-.71-1.772-2.667-2.654-4.378-1.969l-.491.197.204.508zm-1.85-6.04l-.491.196.204.509c.705 1.759 2.656 2.658 4.378 1.969l.49-.197-.203-.508c-.71-1.772-2.667-2.655-4.378-1.97zm3.838-.725l.144.064.06-.146c.817-2.01-.125-4.354-2.1-5.242l-.144-.065-.06.147c-.822 2.021.139 4.36 2.1 5.242z" fill="#414550"/></svg>