<svg width="20" height="36" fill="none" xmlns="http://www.w3.org/2000/svg"><path d="M6.964 11.353c-2.059.32-4 .944-5.891 1.818l-.173.347c0 .935.02 1.873 0 2.809-.024 1.076-.015 2.19-.173 3.258-.137.92-.248 1.872-.286 2.802-.05 1.235-.256 2.456-.295 3.688-.046 1.46-.02 2.906.048 4.368.041.883.263 1.718.36 2.584.033.3 1.208.583 1.436.66 1.008.344 2.055.801 3.127.899.614.056 1.22.181 1.837.218.665.04 1.33.046 1.995.1.78.061 1.57.028 2.353.028 1.424 0 2.878-.279 4.259-.606.77-.182 1.547-.31 2.312-.523.495-.137 1.492-.385 1.773-.891.203-.365.039-.95.084-1.353.1-.908-.013-1.816-.013-2.726 0-1.497-.07-2.952-.26-4.435-.168-1.312-.144-2.706-.144-4.03 0-1.457-.081-2.985.144-4.426.21-1.344-.77-2.076-1.555-2.966-.33-.374-1.045-.553-1.5-.696-.454-.143-.82-.45-1.258-.597-.618-.206-1.359-.26-2-.359-.892-.136-1.798-.346-2.701-.346-.602 0-1.204-.015-1.802.058-.569.07-1.113.23-1.677.317z" fill="#EDD5B2"/><path d="M4.722 21.375c.275 0 .543-.082.772-.237.228-.155.406-.374.511-.631a1.423 1.423 0 00-.3-1.533 1.374 1.374 0 00-1.514-.305c-.254.107-.471.287-.624.518a1.419 1.419 0 00.174 1.776c.26.263.613.412.981.412zm0-1.688a.275.275 0 01.257.174.285.285 0 01-.06.307.277.277 0 01-.475-.2c0-.074.03-.145.082-.198a.276.276 0 01.196-.082zM6.389 12.375c-.368 0-.721.149-.982.412-.26.264-.407.621-.407.994h1.111c0-.074.03-.146.081-.199a.276.276 0 01.393 0 .283.283 0 01.082.2h1.11c0-.374-.146-.731-.406-.995a1.381 1.381 0 00-.982-.412zM10.278 13.781c-.368 0-.721.149-.982.413-.26.263-.407.62-.407.993H10c0-.074.03-.146.081-.198a.276.276 0 01.475.198h1.11c0-.372-.146-.73-.407-.993a1.382 1.382 0 00-.981-.413zM14.722 12.375c-.368 0-.721.149-.981.412-.26.264-.407.621-.408.994h1.111c0-.074.03-.146.082-.199a.276.276 0 01.393 0 .283.283 0 01.081.2h1.111c0-.374-.147-.731-.407-.995a1.381 1.381 0 00-.982-.412zM8.056 25.875c.274 0 .543-.082.771-.237.229-.155.407-.374.512-.631a1.423 1.423 0 00-.301-1.533 1.374 1.374 0 00-1.514-.305c-.254.107-.47.287-.623.518a1.419 1.419 0 00.173 1.776c.26.263.613.412.982.412zm0-1.688a.275.275 0 01.256.174.285.285 0 01-.06.307.277.277 0 01-.474-.2c0-.074.029-.145.081-.198a.276.276 0 01.197-.082zM4.167 32.063c.274 0 .543-.083.771-.238.229-.154.407-.374.512-.63a1.423 1.423 0 00-.301-1.533 1.374 1.374 0 00-1.514-.305c-.254.107-.47.287-.623.518a1.418 1.418 0 00.173 1.775c.26.264.613.412.982.413zm0-1.688a.275.275 0 01.256.174.285.285 0 01-.06.306.277.277 0 01-.474-.199c0-.074.03-.146.081-.199a.276.276 0 01.197-.082zM13.611 22.5c.275 0 .543-.082.772-.237.228-.155.406-.374.511-.631a1.423 1.423 0 00-.3-1.533 1.384 1.384 0 00-1.514-.305c-.254.107-.471.287-.624.518a1.419 1.419 0 00.174 1.776c.26.263.613.412.981.412zm0-1.688a.275.275 0 01.257.174.284.284 0 01-.06.307.276.276 0 01-.475-.2c0-.074.03-.145.082-.198a.276.276 0 01.196-.082zM16.389 25.875c.275 0 .543-.082.771-.237.229-.155.407-.374.512-.631a1.423 1.423 0 00-.301-1.533 1.374 1.374 0 00-1.514-.305c-.253.107-.47.287-.623.518a1.419 1.419 0 00.173 1.776c.26.263.614.412.982.412zm0-1.688a.275.275 0 01.256.174.285.285 0 01-.06.307.276.276 0 01-.474-.2c0-.074.03-.145.081-.198a.276.276 0 01.197-.082zM8.333 31.219c0 .278.082.55.234.781.153.231.37.411.624.518a1.374 1.374 0 001.513-.305 1.423 1.423 0 00.301-1.532 1.402 1.402 0 00-.511-.631 1.377 1.377 0 00-1.753.175c-.26.263-.407.62-.408.994zm1.39-.282a.275.275 0 01.256.174.284.284 0 01-.06.307.277.277 0 01-.475-.2c0-.074.03-.145.082-.198a.276.276 0 01.196-.082zM15.833 28.688c-.274 0-.543.082-.771.236a1.422 1.422 0 00-.21 2.164 1.373 1.373 0 001.514.305c.253-.107.47-.287.622-.518a1.419 1.419 0 00-.173-1.775 1.382 1.382 0 00-.982-.413zm0 1.687a.275.275 0 01-.256-.174.285.285 0 01.06-.306.277.277 0 01.474.199c0 .074-.03.146-.081.199a.276.276 0 01-.197.082z" fill="#414550"/><path d="M10 36c4.97 0 10-1.16 10-3.375V9.892L18.655 8.53C19.498 8.044 20 7.45 20 6.75V3.375C20 1.159 14.97 0 10 0S0 1.16 0 3.375v3.492h.005c.053.65.545 1.204 1.34 1.663L0 9.892v22.733C0 34.841 5.03 36 10 36zM3.479 1.926c1.734-.517 4.05-.801 6.521-.801s4.787.284 6.521.8c1.87.557 2.368 1.174 2.368 1.45s-.499.893-2.367 1.45c-1.735.516-4.05.8-6.522.8-2.471 0-4.787-.284-6.521-.8-1.87-.557-2.368-1.174-2.368-1.45s.499-.893 2.368-1.45zM1.11 6.75V5.011C2.867 6.158 6.45 6.75 10 6.75c3.551 0 7.133-.592 8.889-1.739V6.75c0 .276-.499.893-2.367 1.45-1.735.516-4.05.8-6.522.8-2.471 0-4.787-.284-6.521-.8-1.87-.557-2.368-1.174-2.368-1.45zm1.313 2.278c1.929.725 4.762 1.097 7.576 1.097s5.647-.372 7.576-1.097l1.313 1.33v2.068C17.133 11.28 13.55 10.687 10 10.687c-3.551 0-7.133.593-8.889 1.74v-2.069l1.313-1.33zm16.465 5.034c0 .277-.499.893-2.367 1.45-1.735.516-4.05.8-6.522.8-2.471 0-4.787-.284-6.521-.8-1.87-.557-2.368-1.173-2.368-1.45 0-.276.499-.892 2.368-1.449 1.734-.516 4.05-.8 6.521-.8s4.787.284 6.521.8c1.87.557 2.368 1.173 2.368 1.45zM1.11 15.7C2.867 16.845 6.45 17.438 10 17.438c3.551 0 7.133-.593 8.889-1.74v16.927c0 .276-.499.892-2.367 1.45-1.735.516-4.05.8-6.522.8-2.471 0-4.787-.284-6.521-.8-1.87-.558-2.368-1.174-2.368-1.45V15.699z" fill="#414550"/></svg>