<svg width="36" height="37" fill="none" xmlns="http://www.w3.org/2000/svg"><path d="M23.944 17.54c1.422-.559 2.993-.884 4.451-1.34l-.154.076c.422 0 .884.31 1.29.444.374.125.961.39 1.245.666.504.49 1.013 1.009 1.57 1.442.806.627 1.47 1.475 2.1 2.279l.034.043c.43.549.57.962.691 1.63.135.74.126 1.543.137 2.296.03 2.11.23 4.215.23 6.332 0 .81.04 1.625-.094 2.424a2.99 2.99 0 01-.405 1.11c-.143.222-.223.158-.422.247-.936.416-2.19.5-3.2.614-1.148.13-2.37.12-3.526.137-1.312.018-2.623.077-3.934.077-3.246 0-6.566-.163-9.798-.478-1.089-.107-2.209-.255-3.302-.29-.216-.007-1.33.021-1.357-.325-.08-.985-.23-1.982-.23-2.978 0-1.447-.077-2.886-.077-4.336 0-1.24-.241-2.563-.06-3.806.05-.349-.097-1.114.23-1.34.317-.22.825-.384 1.212-.427.358-.04.835-.49 1.135-.674.67-.411 1.357-.55 2.091-.785.73-.234 1.552-.445 2.321-.461.911-.02 1.904-.47 2.791-.691 1.158-.29 2.233-.78 3.294-1.306.561-.278 1.162-.354 1.737-.58z" fill="#F1D58E"/><path d="M7.743 14.397c-2.301.089-4.598-.031-6.9.056l-.045-.092c0 .92-.082 1.884.035 2.795.041.314.017.65-.025.962-.057.418.002.858-.013 1.28-.03.849-.082 1.7-.136 2.549-.078 1.229-.33 2.659.185 3.815.078.176.377.135.532.172.305.071.615.097.921.163.231.05.524.057.76.057.482 0 .958.046 1.441.046h1.618c.492 0 .954-.13 1.428-.23.57-.12 1.015-.405 1.51-.702.208-.125.446-.143.499-.381.05-.226.043-.453.043-.691 0-.428.135-.935.346-1.31.323-.575.828-.63 1.348-.924.21-.12.519-.227.75-.3.349-.108.702-.134 1.062-.171.654-.066 1.407-.147 1.953-.553.405-.3.808-.91.854-1.418.032-.35.033-.732-.094-1.07-.106-.28-.046-.66-.046-.956 0-.63-.04-1.256-.046-1.884-.006-.474-.079-.852-.313-1.249-.065-.11-.377-.092-.494-.092-.504 0-1.005-.056-1.514-.043-1.889.047-3.771.098-5.659.171z" fill="#C6DAEC"/><path d="M34.2 36H3a3.004 3.004 0 01-3-3V7.2a.62.62 0 01.013-.067.607.607 0 01.024-.12.586.586 0 01.048-.104.555.555 0 01.06-.092.566.566 0 01.089-.084c.018-.014.03-.033.05-.046L7.8 2.065V.6A.6.6 0 019 .6v1.465l7.514 4.624c.02.012.031.032.049.045a.62.62 0 01.2.28c.012.04.02.08.024.12a.56.56 0 01.013.066v11.934l10.513-3.286a3.068 3.068 0 011.877.026c5.55 1.867 6.74 5.992 6.788 6.167a.523.523 0 01.006.081.56.56 0 01.016.078v12a1.8 1.8 0 01-1.8 1.8zm-18-1.2h18a.6.6 0 00.6-.6V22.8H9.6v11.4a.6.6 0 00.6.6h6zM3 34.8h5.51a1.78 1.78 0 01-.11-.6V27H1.2v6A1.8 1.8 0 003 34.8zM8.4 3.104L2.72 6.6h11.36L8.4 3.104zM15.6 7.8H1.2v6h14.4v-6zm0 7.2H1.2v10.8h7.2v-3.6c0-.01.005-.019.006-.028a.565.565 0 01.025-.123.666.666 0 01.03-.104.614.614 0 01.064-.094.578.578 0 01.071-.089.617.617 0 01.09-.06.595.595 0 01.11-.06c.009-.004.015-.011.025-.014l6.779-2.119V15zm13.207 2.011a1.85 1.85 0 00-1.136-.017L12.931 21.6h21.576c-.58-1.166-2.107-3.38-5.7-4.589z" fill="#414550"/><path d="M31.802 24a1.8 1.8 0 110 3.6 1.8 1.8 0 010-3.6zm0 2.4a.6.6 0 100-1.2.6.6 0 000 1.2zM27.298 28.2a2.1 2.1 0 110 4.2 2.1 2.1 0 010-4.2zm0 3a.9.9 0 100-1.8.9.9 0 000 1.8zM21 23.4a1.8 1.8 0 110 3.6 1.8 1.8 0 010-3.6zm0 2.4a.6.6 0 100-1.2.6.6 0 000 1.2zM13.803 28.8a2.4 2.4 0 110 4.8 2.4 2.4 0 010-4.8zm0 3.6a1.2 1.2 0 100-2.4 1.2 1.2 0 000 2.4zM27.6 19.2a.6.6 0 110-1.2.6.6 0 010 1.2zM25.801 25.8a.6.6 0 110-1.2.6.6 0 010 1.2zM32.4 32.4a.6.6 0 110-1.2.6.6 0 010 1.2zM21.002 33a.6.6 0 110-1.2.6.6 0 010 1.2zM12.6 25.8a.6.6 0 110-1.2.6.6 0 010 1.2zM16.801 28.8a.6.6 0 110-1.2.6.6 0 010 1.2zM24.002 20.4a.6.6 0 110-1.2.6.6 0 010 1.2zM30.6 20.4a.6.6 0 110-1.2.6.6 0 010 1.2zM12.598 9h1.2a.6.6 0 110 1.2h-1.2a.6.6 0 010-1.2zM3.6 9h6a.6.6 0 010 1.2h-6a.6.6 0 010-1.2z" fill="#414550"/></svg>