<svg width="27" height="42" fill="none" xmlns="http://www.w3.org/2000/svg"><path d="M23.638 12.97c3.183 1.727 3.143 6.191 1.592 9.02l-.266.265c-.185.093-.367.526-.53.73-.165.206-1.198.33-1.474.33-2.365 0-4.198.03-6.16-1.466-1.377-1.048-2.294-2.489-3.582-3.574-.444-.373-1.071-.506-1.518-.928-.408-.386-.672-.814-.9-1.327-.494-1.113-.933-3.008-2.35-3.323-.781-.174-1.495-.652-2.314-.789-.457-.076-1.397-.354-1.658-.803-.339-.58-.472-1.461-.472-2.115 0-.75-.158-1.71.007-2.454.328-1.474.467-3.016.796-4.495.121-.544 1.623-.68 2.042-.848.637-.255 1.764.058 2.402.133.728.085 2.001.147 2.58.633.487.411 1.117.588 1.591 1.062.572.572.98 1.418 1.526 2.048.688.795 1.851 1.157 2.652 1.798 1.156.925 1.78 2.269 2.587 3.479.485.727.703 1.172 1.46 1.592.649.36 1.331.674 1.989 1.031zM20.7 30.875c3.183 1.727 3.143 6.192 1.592 9.02l-.266.265c-.185.093-.367.526-.53.73-.165.206-1.197.331-1.474.331-2.365 0-4.198.029-6.16-1.466-1.377-1.049-2.293-2.49-3.582-3.574-.444-.374-1.07-.506-1.518-.929-.408-.385-.672-.814-.9-1.326-.494-1.114-.933-3.009-2.35-3.324-.78-.174-1.495-.652-2.314-.788-.457-.077-1.396-.355-1.658-.804-.339-.58-.472-1.461-.472-2.115 0-.75-.158-1.71.007-2.454.328-1.473.468-3.016.796-4.495.121-.544 1.623-.68 2.042-.848.637-.255 1.764.058 2.402.133.728.086 2.002.147 2.58.634.487.41 1.117.587 1.591 1.061.573.573.98 1.419 1.526 2.049.688.794 1.851 1.157 2.653 1.798 1.155.924 1.78 2.268 2.586 3.478.485.727.703 1.172 1.46 1.592.649.36 1.331.675 1.989 1.032z" fill="#C4CAA9"/><path d="M15 8.625A3.379 3.379 0 0118.375 12 3.379 3.379 0 0115 15.375 3.379 3.379 0 0111.625 12 3.379 3.379 0 0115 8.625zm0 5.25c1.034 0 1.875-.84 1.875-1.875 0-1.034-.84-1.875-1.875-1.875-1.034 0-1.875.84-1.875 1.875 0 1.034.84 1.875 1.875 1.875zM20.625 14.25A3.379 3.379 0 0124 17.625 3.379 3.379 0 0120.625 21a3.379 3.379 0 01-3.375-3.375 3.379 3.379 0 013.375-3.375zm0 5.25c1.034 0 1.875-.84 1.875-1.875 0-1.034-.84-1.875-1.875-1.875-1.034 0-1.875.84-1.875 1.875 0 1.034.84 1.875 1.875 1.875zM9.375 3a3.379 3.379 0 013.375 3.375A3.379 3.379 0 019.375 9.75 3.379 3.379 0 016 6.375 3.379 3.379 0 019.375 3zm0 5.25c1.034 0 1.875-.84 1.875-1.875 0-1.034-.84-1.875-1.875-1.875-1.034 0-1.875.84-1.875 1.875 0 1.034.84 1.875 1.875 1.875z" fill="#414550"/><path d="M3.002 6.5c.034-1.638 1.076-4.772 1.12-4.904a.75.75 0 01.474-.473C4.729 1.078 7.863.035 9.503 0A6.656 6.656 0 0115.87 4.34c.243.657.787 1.187 1.49 1.455a6.664 6.664 0 013.846 3.845c.268.704.798 1.248 1.454 1.49a6.65 6.65 0 014.338 6.37c-.034 1.638-1.065 4.78-1.108 4.914a.75.75 0 01-.477.477c-.134.044-3.278 1.075-4.916 1.108l-.138.002a6.65 6.65 0 01-6.23-4.34c-.242-.656-.786-1.186-1.49-1.454a6.664 6.664 0 01-3.845-3.845c-.268-.704-.798-1.248-1.454-1.491A6.65 6.65 0 013.002 6.5zm4.86 4.964c1.061.393 1.911 1.254 2.334 2.362a5.154 5.154 0 002.978 2.978c1.108.422 1.969 1.274 2.362 2.335.762 2.055 2.812 3.4 4.93 3.36 1.035-.022 3.069-.592 4.115-.918.326-1.046.896-3.077.918-4.114a5.148 5.148 0 00-3.36-4.931c-1.062-.393-1.912-1.255-2.335-2.362a5.154 5.154 0 00-2.978-2.978c-1.108-.423-1.969-1.274-2.362-2.335-.762-2.055-2.79-3.415-4.93-3.36-1.035.022-3.063.599-4.105.928-.328 1.04-.906 3.067-.928 4.103a5.148 5.148 0 003.36 4.932zM12 26.625A3.379 3.379 0 0115.375 30 3.379 3.379 0 0112 33.375 3.379 3.379 0 018.625 30 3.379 3.379 0 0112 26.625zm0 5.25c1.034 0 1.875-.84 1.875-1.875 0-1.034-.84-1.875-1.875-1.875-1.034 0-1.875.84-1.875 1.875 0 1.034.84 1.875 1.875 1.875zM17.625 32.25A3.379 3.379 0 0121 35.625 3.379 3.379 0 0117.625 39a3.379 3.379 0 01-3.375-3.375 3.379 3.379 0 013.375-3.375zm0 5.25c1.034 0 1.875-.84 1.875-1.875 0-1.034-.84-1.875-1.875-1.875-1.034 0-1.875.84-1.875 1.875 0 1.034.84 1.875 1.875 1.875zM6.375 21a3.379 3.379 0 013.375 3.375 3.379 3.379 0 01-3.375 3.375A3.379 3.379 0 013 24.375 3.379 3.379 0 016.375 21zm0 5.25c1.034 0 1.875-.84 1.875-1.875 0-1.034-.84-1.875-1.875-1.875-1.034 0-1.875.84-1.875 1.875 0 1.034.84 1.875 1.875 1.875z" fill="#414550"/><path d="M.002 24.5c.034-1.638 1.076-4.772 1.12-4.904a.75.75 0 01.474-.473c.133-.045 3.267-1.088 4.907-1.122a6.656 6.656 0 016.367 4.338c.243.657.787 1.187 1.49 1.455a6.664 6.664 0 013.846 3.845c.268.704.798 1.248 1.454 1.49a6.65 6.65 0 014.338 6.37c-.034 1.638-1.065 4.78-1.108 4.914a.75.75 0 01-.477.477c-.134.044-3.278 1.075-4.916 1.108l-.138.002a6.65 6.65 0 01-6.23-4.34c-.242-.656-.786-1.186-1.49-1.454a6.664 6.664 0 01-3.845-3.846c-.268-.703-.798-1.247-1.454-1.49A6.65 6.65 0 01.002 24.5zm4.86 4.964c1.061.393 1.911 1.254 2.334 2.362a5.154 5.154 0 002.978 2.978c1.108.422 1.969 1.274 2.362 2.335.762 2.055 2.812 3.4 4.93 3.36 1.035-.022 3.069-.592 4.115-.918.326-1.046.896-3.077.918-4.114a5.148 5.148 0 00-3.36-4.931c-1.062-.393-1.912-1.255-2.335-2.362a5.154 5.154 0 00-2.978-2.978c-1.108-.423-1.969-1.274-2.362-2.335-.762-2.055-2.79-3.415-4.93-3.36-1.035.021-3.063.599-4.105.928-.328 1.04-.906 3.067-.928 4.103a5.148 5.148 0 003.36 4.932z" fill="#414550"/></svg>