<svg width="120" height="16" fill="none" xmlns="http://www.w3.org/2000/svg"><path d="M8 0l2.022 5.217 5.586.31-4.336 3.536 1.43 5.41L8 11.44l-4.702 3.032 1.43-5.409L.392 5.528l5.586-.311L8 0zM34 0l2.022 5.217 5.587.31-4.337 3.536 1.43 5.41L34 11.44l-4.702 3.032 1.43-5.409-4.337-3.535 5.587-.311L34 0zM60 0l2.022 5.217 5.587.31-4.337 3.536 1.43 5.41L60 11.44l-4.702 3.032 1.43-5.409-4.337-3.535 5.587-.311L60 0zM86 0l2.022 5.217 5.587.31-4.337 3.536 1.43 5.41L86 11.44l-4.702 3.032 1.43-5.409-4.337-3.535 5.587-.311L86 0zM112 0l2.022 5.217 5.586.31-4.336 3.536 1.43 5.41L112 11.44l-4.702 3.032 1.43-5.409-4.336-3.535 5.586-.311L112 0z" fill="#F90"/></svg>