<svg width="120" height="17" fill="none" xmlns="http://www.w3.org/2000/svg"><path d="M8 1.884l1.556 4.014.116.3.322.018 4.299.24-3.337 2.72-.25.203.082.312 1.101 4.162-3.618-2.333L8 11.345l-.271.175-3.618 2.333 1.1-4.162.083-.312-.25-.204-3.337-2.72 4.299-.239.322-.018.116-.3L8 1.884zM34 1.884l1.556 4.014.116.3.322.018 4.299.24-3.337 2.72-.25.203.082.312 1.101 4.162-3.618-2.333-.271-.175-.271.175-3.618 2.333 1.1-4.162.083-.312-.25-.204-3.337-2.72 4.299-.239.322-.018.116-.3L34 1.884zM60 1.884l1.556 4.014.116.3.322.018 4.299.24-3.337 2.72-.25.203.082.312 1.101 4.162-3.618-2.333-.271-.175-.271.175-3.618 2.333 1.1-4.162.083-.312-.25-.204-3.337-2.72 4.299-.239.322-.018.116-.3L60 1.884zM86 1.884l1.556 4.014.116.3.322.018 4.299.24-3.337 2.72-.25.203.082.312 1.101 4.162-3.618-2.333-.271-.175-.271.175-3.618 2.333 1.1-4.162.083-.312-.25-.204-3.337-2.72 4.299-.239.322-.018.116-.3L86 1.884zM112 1.884l1.556 4.014.116.3.322.018 4.299.24-3.337 2.72-.25.203.082.312 1.101 4.162-3.618-2.333-.271-.175-.271.175-3.618 2.333 1.101-4.162.082-.312-.25-.204-3.337-2.72 4.299-.239.322-.018.116-.3L112 1.884z" fill="#FFFDFA" stroke="#AAA"/></svg>