<svg width="120" height="16" fill="none" xmlns="http://www.w3.org/2000/svg"><path d="M8 0l2.022 5.217 5.586.31-4.336 3.536 1.43 5.41L8 11.44l-4.702 3.032 1.43-5.409L.392 5.528l5.586-.311L8 0zM34 0l2.022 5.217 5.587.31-4.337 3.536 1.43 5.41L34 11.44l-4.702 3.032 1.43-5.409-4.337-3.535 5.587-.311L34 0zM60 0l2.022 5.217 5.587.31-4.337 3.536 1.43 5.41L60 11.44l-4.702 3.032 1.43-5.409-4.337-3.535 5.587-.311L60 0zM86 0l2.022 5.217 5.587.31-4.337 3.536 1.43 5.41L86 11.44l-4.702 3.032 1.43-5.409-4.337-3.535 5.587-.311L86 0z" fill="#F90"/><path d="M112 1.384l1.556 4.014.116.3.322.018 4.299.24-3.337 2.72-.25.203.082.312 1.101 4.162-3.618-2.333-.271-.175-.271.175-3.618 2.333 1.101-4.162.082-.312-.25-.204-3.337-2.72 4.299-.239.322-.018.116-.3L112 1.384z" fill="#FAF2DF" stroke="#F90"/></svg>