<svg width="11" height="20" viewBox="0 0 11 20" fill="none" xmlns="http://www.w3.org/2000/svg">
<path d="M10.4057 0.00416134L7.8122 0C4.89847 0 3.01548 1.9319 3.01548 4.92203V7.19141H0.407807C0.182473 7.19141 0 7.37409 0 7.59943V10.8875C0 11.1128 0.182681 11.2953 0.407807 11.2953H3.01548V19.5922C3.01548 19.8175 3.19795 20 3.42329 20H6.82556C7.05089 20 7.23337 19.8173 7.23337 19.5922V11.2953H10.2823C10.5077 11.2953 10.6902 11.1128 10.6902 10.8875L10.6914 7.59943C10.6914 7.49123 10.6483 7.38762 10.572 7.31105C10.4956 7.23448 10.3916 7.19141 10.2834 7.19141H7.23337V5.26763C7.23337 4.34298 7.45371 3.87358 8.65819 3.87358L10.4053 3.87295C10.6304 3.87295 10.8129 3.69027 10.8129 3.46514V0.411972C10.8129 0.187052 10.6306 0.00457747 10.4057 0.00416134Z" fill="#9DA8B2"/>
</svg>
