<svg width="20" height="20" viewBox="0 0 20 20" fill="none" xmlns="http://www.w3.org/2000/svg">
<path d="M14.4806 0H5.51916C2.4759 0 0 2.47601 0 5.51928V14.4807C0 17.5241 2.4759 20 5.51916 20H14.4806C17.5241 20 20 17.524 20 14.4807V5.51928C20.0001 2.47601 17.5241 0 14.4806 0ZM18.2256 14.4807C18.2256 16.5456 16.5456 18.2255 14.4807 18.2255H5.51916C3.45435 18.2256 1.7745 16.5456 1.7745 14.4807V5.51928C1.7745 3.45447 3.45435 1.7745 5.51916 1.7745H14.4806C16.5455 1.7745 18.2255 3.45447 18.2255 5.51928L18.2256 14.4807Z" fill="#9DA8B2"/>
<path d="M9.99942 4.84674C7.15774 4.84674 4.84592 7.15856 4.84592 10.0002C4.84592 12.8418 7.15774 15.1535 9.99942 15.1535C12.8411 15.1535 15.1529 12.8418 15.1529 10.0002C15.1529 7.15856 12.8411 4.84674 9.99942 4.84674ZM9.99942 13.3789C8.13631 13.3789 6.62042 11.8632 6.62042 10.0001C6.62042 8.1369 8.1362 6.62112 9.99942 6.62112C11.8626 6.62112 13.3784 8.1369 13.3784 10.0001C13.3784 11.8632 11.8625 13.3789 9.99942 13.3789Z" fill="#9DA8B2"/>
<path d="M15.3693 3.34208C15.0274 3.34208 14.6916 3.48049 14.4501 3.72301C14.2075 3.96434 14.068 4.30031 14.068 4.64338C14.068 4.98538 14.2076 5.32124 14.4501 5.56375C14.6915 5.80508 15.0274 5.94468 15.3693 5.94468C15.7124 5.94468 16.0472 5.80508 16.2897 5.56375C16.5322 5.32124 16.6706 4.98526 16.6706 4.64338C16.6706 4.30031 16.5322 3.96434 16.2897 3.72301C16.0484 3.48049 15.7124 3.34208 15.3693 3.34208Z" fill="#9DA8B2"/>
</svg>
