<svg width="21" height="21" viewBox="0 0 21 21" fill="none" xmlns="http://www.w3.org/2000/svg">
<path fill-rule="evenodd" clip-rule="evenodd" d="M3.37549 5H5.58223C6.12386 3.77432 6.86163 2.71878 7.77932 1.91849C6.01363 2.47772 4.48345 3.5669 3.37549 5ZM10 1.69897C8.60543 2.27727 7.468 3.44021 6.68557 5H10V1.69897ZM10 6H6.25281C5.81518 7.18299 5.55623 8.53693 5.50817 10H10V6ZM11 10V6H14.7472C15.1848 7.18299 15.4438 8.53693 15.4918 10H11ZM10 11H5.50817C5.55623 12.4631 5.81518 13.817 6.25281 15H10V11ZM11 15V11H15.4918C15.4438 12.4631 15.1848 13.817 14.7472 15H11ZM10 16H6.68557C7.468 17.5598 8.60543 18.7227 10 19.301V16ZM7.77932 19.0815C6.86163 18.2812 6.12386 17.2257 5.58223 16H3.37549C4.48345 17.4331 6.01363 18.5223 7.77932 19.0815ZM2.70394 15H5.19617C4.78627 13.7731 4.55237 12.4164 4.50783 11H1.51364C1.5931 12.4523 2.01662 13.812 2.70394 15ZM1.51364 10H4.50783C4.55237 8.58356 4.78627 7.22689 5.19617 6H2.70394C2.01662 7.18804 1.5931 8.54772 1.51364 10ZM13.2207 19.0815C14.9864 18.5223 16.5165 17.4331 17.6245 16H15.4178C14.8761 17.2257 14.1384 18.2812 13.2207 19.0815ZM14.3144 16H11V19.301C12.3946 18.7227 13.532 17.5598 14.3144 16ZM15.8038 15H18.2961C18.9834 13.812 19.4069 12.4523 19.4864 11H16.4922C16.4476 12.4164 16.2137 13.7731 15.8038 15ZM16.4922 10H19.4864C19.4069 8.54772 18.9834 7.18804 18.2961 6H15.8038C16.2137 7.22689 16.4476 8.58356 16.4922 10ZM15.4178 5H17.6245C16.5165 3.5669 14.9864 2.47772 13.2207 1.91849C14.1384 2.71878 14.8761 3.77432 15.4178 5ZM11 1.69897V5H14.3144C13.532 3.44021 12.3946 2.27727 11 1.69897ZM1.9958 5.23647C3.75835 2.39449 6.90773 0.5 10.5 0.5C14.0923 0.5 17.2417 2.39449 19.0042 5.23647C19.9525 6.76562 20.5 8.56964 20.5 10.5C20.5 12.4304 19.9525 14.2344 19.0042 15.7635C17.2417 18.6055 14.0923 20.5 10.5 20.5C6.90773 20.5 3.75835 18.6055 1.9958 15.7635C1.04745 14.2344 0.5 12.4304 0.5 10.5C0.5 8.56964 1.04745 6.76562 1.9958 5.23647Z" fill="white"/>
</svg>
