<svg width="22" height="22" viewBox="0 0 22 22" fill="none" xmlns="http://www.w3.org/2000/svg">
<path fill-rule="evenodd" clip-rule="evenodd" d="M1.40717 1.40717C2.07493 0.739411 3.00608 0.25 4 0.25H18C18.9939 0.25 19.9251 0.73941 20.5928 1.40717C21.2606 2.07493 21.75 3.00608 21.75 4V18C21.75 18.9939 21.2606 19.9251 20.5928 20.5928C19.9251 21.2606 18.9939 21.75 18 21.75H4C3.00608 21.75 2.07493 21.2606 1.40717 20.5928C0.739411 19.9251 0.25 18.9939 0.25 18V4C0.25 3.00608 0.73941 2.07493 1.40717 1.40717ZM2.46783 2.46783C2.01059 2.92507 1.75 3.49392 1.75 4V18C1.75 18.5061 2.01059 19.0749 2.46783 19.5322C2.92507 19.9894 3.49392 20.25 4 20.25H18C18.5061 20.25 19.0749 19.9894 19.5322 19.5322C19.9894 19.0749 20.25 18.5061 20.25 18V4C20.25 3.49392 19.9894 2.92507 19.5322 2.46783C19.0749 2.01059 18.5061 1.75 18 1.75H4C3.49392 1.75 2.92507 2.01059 2.46783 2.46783ZM17 4.75C16.8619 4.75 16.75 4.86193 16.75 5C16.75 5.13807 16.8619 5.25 17 5.25C17.1381 5.25 17.25 5.13807 17.25 5C17.25 4.86193 17.1381 4.75 17 4.75ZM15.25 5C15.25 4.0335 16.0335 3.25 17 3.25C17.9665 3.25 18.75 4.0335 18.75 5C18.75 5.9665 17.9665 6.75 17 6.75C16.0335 6.75 15.25 5.9665 15.25 5ZM11 6.75C8.65279 6.75 6.75 8.65279 6.75 11C6.75 13.3472 8.65279 15.25 11 15.25C13.3472 15.25 15.25 13.3472 15.25 11C15.25 8.65279 13.3472 6.75 11 6.75ZM5.25 11C5.25 7.82436 7.82436 5.25 11 5.25C14.1756 5.25 16.75 7.82436 16.75 11C16.75 14.1756 14.1756 16.75 11 16.75C7.82436 16.75 5.25 14.1756 5.25 11Z" fill="url(#paint0_angular)"/>
<path fill-rule="evenodd" clip-rule="evenodd" d="M1.40717 1.40717C2.07493 0.739411 3.00608 0.25 4 0.25H18C18.9939 0.25 19.9251 0.73941 20.5928 1.40717C21.2606 2.07493 21.75 3.00608 21.75 4V18C21.75 18.9939 21.2606 19.9251 20.5928 20.5928C19.9251 21.2606 18.9939 21.75 18 21.75H4C3.00608 21.75 2.07493 21.2606 1.40717 20.5928C0.739411 19.9251 0.25 18.9939 0.25 18V4C0.25 3.00608 0.73941 2.07493 1.40717 1.40717ZM2.46783 2.46783C2.01059 2.92507 1.75 3.49392 1.75 4V18C1.75 18.5061 2.01059 19.0749 2.46783 19.5322C2.92507 19.9894 3.49392 20.25 4 20.25H18C18.5061 20.25 19.0749 19.9894 19.5322 19.5322C19.9894 19.0749 20.25 18.5061 20.25 18V4C20.25 3.49392 19.9894 2.92507 19.5322 2.46783C19.0749 2.01059 18.5061 1.75 18 1.75H4C3.49392 1.75 2.92507 2.01059 2.46783 2.46783ZM17 4.75C16.8619 4.75 16.75 4.86193 16.75 5C16.75 5.13807 16.8619 5.25 17 5.25C17.1381 5.25 17.25 5.13807 17.25 5C17.25 4.86193 17.1381 4.75 17 4.75ZM15.25 5C15.25 4.0335 16.0335 3.25 17 3.25C17.9665 3.25 18.75 4.0335 18.75 5C18.75 5.9665 17.9665 6.75 17 6.75C16.0335 6.75 15.25 5.9665 15.25 5ZM11 6.75C8.65279 6.75 6.75 8.65279 6.75 11C6.75 13.3472 8.65279 15.25 11 15.25C13.3472 15.25 15.25 13.3472 15.25 11C15.25 8.65279 13.3472 6.75 11 6.75ZM5.25 11C5.25 7.82436 7.82436 5.25 11 5.25C14.1756 5.25 16.75 7.82436 16.75 11C16.75 14.1756 14.1756 16.75 11 16.75C7.82436 16.75 5.25 14.1756 5.25 11Z" fill="url(#paint1_linear)"/>
<path fill-rule="evenodd" clip-rule="evenodd" d="M1.40717 1.40717C2.07493 0.739411 3.00608 0.25 4 0.25H18C18.9939 0.25 19.9251 0.73941 20.5928 1.40717C21.2606 2.07493 21.75 3.00608 21.75 4V18C21.75 18.9939 21.2606 19.9251 20.5928 20.5928C19.9251 21.2606 18.9939 21.75 18 21.75H4C3.00608 21.75 2.07493 21.2606 1.40717 20.5928C0.739411 19.9251 0.25 18.9939 0.25 18V4C0.25 3.00608 0.73941 2.07493 1.40717 1.40717ZM2.46783 2.46783C2.01059 2.92507 1.75 3.49392 1.75 4V18C1.75 18.5061 2.01059 19.0749 2.46783 19.5322C2.92507 19.9894 3.49392 20.25 4 20.25H18C18.5061 20.25 19.0749 19.9894 19.5322 19.5322C19.9894 19.0749 20.25 18.5061 20.25 18V4C20.25 3.49392 19.9894 2.92507 19.5322 2.46783C19.0749 2.01059 18.5061 1.75 18 1.75H4C3.49392 1.75 2.92507 2.01059 2.46783 2.46783ZM17 4.75C16.8619 4.75 16.75 4.86193 16.75 5C16.75 5.13807 16.8619 5.25 17 5.25C17.1381 5.25 17.25 5.13807 17.25 5C17.25 4.86193 17.1381 4.75 17 4.75ZM15.25 5C15.25 4.0335 16.0335 3.25 17 3.25C17.9665 3.25 18.75 4.0335 18.75 5C18.75 5.9665 17.9665 6.75 17 6.75C16.0335 6.75 15.25 5.9665 15.25 5ZM11 6.75C8.65279 6.75 6.75 8.65279 6.75 11C6.75 13.3472 8.65279 15.25 11 15.25C13.3472 15.25 15.25 13.3472 15.25 11C15.25 8.65279 13.3472 6.75 11 6.75ZM5.25 11C5.25 7.82436 7.82436 5.25 11 5.25C14.1756 5.25 16.75 7.82436 16.75 11C16.75 14.1756 14.1756 16.75 11 16.75C7.82436 16.75 5.25 14.1756 5.25 11Z" fill="url(#paint2_linear)"/>
<defs>
<radialGradient id="paint0_angular" cx="0" cy="0" r="1" gradientUnits="userSpaceOnUse" gradientTransform="translate(11 11) rotate(46.9749) scale(10.2591)">
<stop stop-color="#F04C5C"/>
<stop offset="0.25" stop-color="#FFD253"/>
<stop offset="0.396826" stop-color="#F24D58"/>
<stop offset="0.505208" stop-color="#4069CA"/>
<stop offset="0.734375" stop-color="#AF30BB"/>
<stop offset="0.848944" stop-color="#CB39A5"/>
<stop offset="1" stop-color="#E94869"/>
</radialGradient>
<linearGradient id="paint1_linear" x1="0.999999" y1="23" x2="21" y2="2.5" gradientUnits="userSpaceOnUse">
<stop stop-color="#FFD253"/>
<stop offset="0.377424" stop-color="#F24D58"/>
<stop offset="1" stop-color="#AF30BB"/>
</linearGradient>
<linearGradient id="paint2_linear" x1="1" y1="2.5" x2="8" y2="13.5" gradientUnits="userSpaceOnUse">
<stop stop-color="#4069CA"/>
<stop offset="1" stop-color="#A839AB" stop-opacity="0"/>
</linearGradient>
</defs>
</svg>
