<svg width="27" height="42" viewBox="0 0 27 42" fill="none" xmlns="http://www.w3.org/2000/svg">
<path d="M23.6379 12.9693C26.8208 14.6971 26.7806 19.1612 25.2297 21.9894L24.9644 22.2547C24.7788 22.3475 24.5965 22.7808 24.4338 22.9843C24.2687 23.1907 23.2365 23.3159 22.9599 23.3159C20.595 23.3159 18.7617 23.3446 16.7992 21.8494C15.4232 20.801 14.5064 19.3605 13.2177 18.2752C12.7742 17.9018 12.147 17.7693 11.6996 17.3467C11.2917 16.9615 11.0282 16.5326 10.8005 16.0202C10.3057 14.9068 9.86726 13.0117 8.44969 12.6966C7.66896 12.5231 6.95528 12.0447 6.13571 11.9081C5.67895 11.832 4.73944 11.5537 4.47761 11.1049C4.13919 10.5247 4.00597 9.64357 4.00597 8.98986C4.00597 8.24014 3.84794 7.28019 4.01334 6.53587C4.34082 5.0622 4.48046 3.52001 4.80923 2.04057C4.93006 1.49684 6.43189 1.36055 6.85054 1.19309C7.48799 0.938109 8.61519 1.25071 9.25295 1.32574C9.98064 1.41135 11.2544 1.47291 11.8322 1.9595C12.3197 2.36998 12.9499 2.5466 13.424 3.02069C13.9964 3.59312 14.4032 4.43911 14.9495 5.06937C15.6381 5.86396 16.8011 6.2264 17.6024 6.86749C18.7578 7.79177 19.3825 9.13596 20.1891 10.3458C20.6739 11.0731 20.8923 11.5177 21.6482 11.9376C22.2978 12.2985 22.9801 12.6122 23.6379 12.9693Z" fill="#C4CAA9"/>
<path d="M20.7 30.8747C23.8829 32.6025 23.8428 37.0666 22.2918 39.8948L22.0265 40.1601C21.841 40.2529 21.6587 40.6862 21.4959 40.8896C21.3308 41.0961 20.2986 41.2213 20.0221 41.2213C17.6572 41.2213 15.8238 41.25 13.8613 39.7548C12.4854 38.7064 11.5685 37.2659 10.2798 36.1806C9.83638 35.8072 9.20915 35.6747 8.7617 35.2521C8.35386 34.8669 8.09037 34.438 7.86264 33.9256C7.36781 32.8122 6.92939 30.9171 5.51182 30.602C4.7311 30.4285 4.01742 29.9501 3.19785 29.8135C2.74108 29.7374 1.80158 29.4591 1.53974 29.0103C1.20133 28.4301 1.0681 27.549 1.0681 26.8953C1.0681 26.1455 0.910069 25.1856 1.07547 24.4413C1.40296 22.9676 1.5426 21.4254 1.87136 19.946C1.99219 19.4022 3.49402 19.2659 3.91267 19.0985C4.55013 18.8435 5.67732 19.1561 6.31508 19.2311C7.04277 19.3167 8.31652 19.3783 8.89435 19.8649C9.38179 20.2754 10.012 20.452 10.4861 20.9261C11.0586 21.4985 11.4654 22.3445 12.0116 22.9748C12.7002 23.7694 13.8632 24.1318 14.6646 24.7729C15.8199 25.6972 16.4446 27.0414 17.2512 28.2512C17.736 28.9785 17.9545 29.4231 18.7103 29.843C19.36 30.2039 20.0422 30.5176 20.7 30.8747Z" fill="#C4CAA9"/>
<path d="M15 8.62484C16.8611 8.62484 18.375 10.1387 18.375 11.9999C18.375 13.861 16.8611 15.3749 15 15.3749C13.1389 15.3749 11.625 13.861 11.625 11.9999C11.625 10.1387 13.1389 8.62484 15 8.62484ZM15 13.8749C16.0342 13.8749 16.875 13.0341 16.875 11.9999C16.875 10.9656 16.0342 10.1248 15 10.1248C13.9658 10.1248 13.125 10.9656 13.125 11.9999C13.125 13.0341 13.9658 13.8749 15 13.8749Z" fill="#414550"/>
<path d="M20.625 14.2499C22.4861 14.2499 24 15.7638 24 17.6249C24 19.486 22.4861 20.9999 20.625 20.9999C18.7639 20.9999 17.25 19.486 17.25 17.6249C17.25 15.7638 18.7639 14.2499 20.625 14.2499ZM20.625 19.4999C21.6591 19.4999 22.5 18.6591 22.5 17.6249C22.5 16.5907 21.6592 15.7498 20.625 15.7498C19.5908 15.7498 18.75 16.5906 18.75 17.6249C18.75 18.659 19.5908 19.4999 20.625 19.4999Z" fill="#414550"/>
<path d="M9.37502 2.99982C11.2361 2.99982 12.75 4.51372 12.75 6.37483C12.75 8.23594 11.2361 9.74985 9.37502 9.74985C7.51393 9.74985 6.00004 8.23594 6.00004 6.37483C6.00004 4.51372 7.51393 2.99982 9.37502 2.99982ZM9.37502 8.24986C10.4092 8.24986 11.25 7.40906 11.25 6.37483C11.25 5.3406 10.4092 4.4998 9.37502 4.4998C8.34087 4.4998 7.50001 5.3406 7.50001 6.37483C7.50001 7.40906 8.34087 8.24986 9.37502 8.24986Z" fill="#414550"/>
<path d="M3.0015 6.50083C3.03596 4.86163 4.0782 1.72835 4.12284 1.59581C4.19759 1.37243 4.37259 1.19735 4.59597 1.12268C4.72851 1.07803 7.86331 0.0350096 9.5032 0.0013298C12.3252 -0.0550611 14.8872 1.68666 15.8701 4.33949C16.1133 4.99572 16.6568 5.52602 17.3606 5.79412C19.1294 6.4694 20.5305 7.87053 21.2058 9.63939C21.4739 10.3432 22.0041 10.8867 22.6597 11.1299C25.3147 12.1136 27.0586 14.6734 26.9985 17.499C26.964 19.1367 25.9335 22.2796 25.8904 22.4128C25.8156 22.6384 25.6384 22.8157 25.4128 22.8896C25.2795 22.9336 22.1352 23.9648 20.4968 23.9985C20.4507 23.9992 20.4052 24 20.3591 24C17.5884 24 15.0967 22.27 14.1299 19.6604C13.8867 19.0041 13.3432 18.4738 12.6394 18.2057C10.8706 17.5304 9.46952 16.1293 8.79418 14.3605C8.52608 13.6566 7.99585 13.1131 7.34033 12.87C4.68534 11.8863 2.94146 9.32649 3.0015 6.50083ZM7.86184 11.4637C8.92313 11.8571 9.77348 12.7184 10.1961 13.8258C10.7183 15.1962 11.8037 16.2816 13.1741 16.8038C14.2822 17.2264 15.1428 18.0776 15.5361 19.1388C16.2978 21.194 18.3479 22.5387 20.4661 22.4984C21.501 22.4772 23.5349 21.9066 24.5808 21.5807C24.9067 20.5355 25.4773 18.5038 25.4985 17.4674C25.5454 15.2796 24.1948 13.2984 22.1382 12.536C21.0769 12.1427 20.2265 11.2813 19.8039 10.1739C19.2817 8.80351 18.1962 7.71809 16.8259 7.19588C15.7178 6.7733 14.8572 5.92216 14.4639 4.86093C13.7022 2.80575 11.6733 1.44633 9.53393 1.50131C8.499 1.52255 6.47092 2.09967 5.42945 2.4293C5.10061 3.46937 4.52271 5.49599 4.50147 6.53233C4.45465 8.72005 5.8052 10.7012 7.86184 11.4637Z" fill="#414550"/>
<path d="M12 26.6248C13.8611 26.6248 15.375 28.1387 15.375 29.9999C15.375 31.861 13.8611 33.3749 12 33.3749C10.1389 33.3749 8.62501 31.861 8.62501 29.9999C8.62501 28.1387 10.1389 26.6248 12 26.6248ZM12 31.8749C13.0342 31.8749 13.875 31.0341 13.875 29.9999C13.875 28.9656 13.0342 28.1248 12 28.1248C10.9658 28.1248 10.125 28.9656 10.125 29.9999C10.125 31.0341 10.9658 31.8749 12 31.8749Z" fill="#414550"/>
<path d="M17.625 32.2499C19.4861 32.2499 21 33.7638 21 35.6249C21 37.486 19.4861 38.9999 17.625 38.9999C15.7639 38.9999 14.25 37.486 14.25 35.6249C14.25 33.7638 15.7639 32.2499 17.625 32.2499ZM17.625 37.4999C18.6591 37.4999 19.5 36.6591 19.5 35.6249C19.5 34.5907 18.6592 33.7498 17.625 33.7498C16.5908 33.7498 15.75 34.5906 15.75 35.6249C15.75 36.659 16.5908 37.4999 17.625 37.4999Z" fill="#414550"/>
<path d="M6.37502 20.9998C8.23612 20.9998 9.75001 22.5137 9.75001 24.3748C9.75001 26.2359 8.23612 27.7498 6.37502 27.7498C4.51393 27.7498 3.00004 26.2359 3.00004 24.3748C3.00004 22.5137 4.51393 20.9998 6.37502 20.9998ZM6.37502 26.2499C7.40917 26.2499 8.25004 25.4091 8.25004 24.3748C8.25004 23.3406 7.40924 22.4998 6.37502 22.4998C5.34087 22.4998 4.50001 23.3406 4.50001 24.3748C4.50001 25.4091 5.34087 26.2499 6.37502 26.2499Z" fill="#414550"/>
<path d="M0.0015049 24.5008C0.0359573 22.8616 1.0782 19.7284 1.12284 19.5958C1.19759 19.3724 1.37259 19.1974 1.59597 19.1227C1.72851 19.078 4.86331 18.035 6.5032 18.0013C9.32518 17.9449 11.8872 19.6867 12.8701 22.3395C13.1133 22.9957 13.6568 23.526 14.3606 23.7941C16.1294 24.4694 17.5305 25.8705 18.2058 27.6394C18.4739 28.3432 19.0041 28.8867 19.6597 29.1299C22.3147 30.1136 24.0586 32.6734 23.9985 35.499C23.964 37.1367 22.9335 40.2796 22.8904 40.4128C22.8156 40.6384 22.6384 40.8157 22.4128 40.8896C22.2795 40.9336 19.1352 41.9648 17.4968 41.9985C17.4507 41.9992 17.4052 42 17.3591 42C14.5884 42 12.0967 40.27 11.1299 37.6604C10.8867 37.0041 10.3432 36.4738 9.63941 36.2057C7.87063 35.5304 6.46952 34.1293 5.79418 32.3605C5.52608 31.6566 4.99585 31.1131 4.34033 30.87C1.68534 29.8863 -0.0585423 27.3265 0.0015049 24.5008ZM4.86184 29.4637C5.92313 29.8571 6.77348 30.7184 7.19606 31.8258C7.71827 33.1962 8.80375 34.2816 10.1741 34.8038C11.2822 35.2264 12.1428 36.0776 12.5361 37.1388C13.2978 39.194 15.3479 40.5387 17.4661 40.4984C18.501 40.4772 20.5349 39.9066 21.5808 39.5807C21.9067 38.5355 22.4773 36.5038 22.4985 35.4674C22.5454 33.2796 21.1948 31.2984 19.1382 30.536C18.0769 30.1427 17.2265 29.2813 16.8039 28.1739C16.2817 26.8035 15.1962 25.7181 13.8259 25.1959C12.7178 24.7733 11.8572 23.9222 11.4639 22.8609C10.7022 20.8058 8.67332 19.4463 6.53393 19.5013C5.499 19.5225 3.47092 20.0997 2.42945 20.4293C2.10061 21.4694 1.52271 23.496 1.50147 24.5323C1.45465 26.72 2.8052 28.7012 4.86184 29.4637Z" fill="#414550"/>
</svg>
