<svg width="20" height="36" viewBox="0 0 20 36" fill="none" xmlns="http://www.w3.org/2000/svg">
<path d="M6.96374 11.3531C4.90495 11.6726 2.96495 12.2975 1.073 13.1713L0.899839 13.5176C0.899839 14.4532 0.920173 15.3913 0.899839 16.3267C0.876439 17.4031 0.885458 18.5174 0.726676 19.5847C0.589716 20.5054 0.47926 21.4569 0.441278 22.3874C0.390885 23.622 0.185379 24.8429 0.14626 26.0751C0.0999102 27.5352 0.126564 28.9813 0.194361 30.4427C0.235349 31.3262 0.457253 32.1609 0.553513 33.0273C0.586837 33.3272 1.76214 33.6102 1.99012 33.6879C2.99794 34.0314 4.04537 34.4884 5.11667 34.5858C5.731 34.6416 6.33762 34.7673 6.95412 34.8038C7.61916 34.8432 8.28365 34.8504 8.94869 34.9032C9.7289 34.9651 10.5197 34.9321 11.3024 34.9321C12.7256 34.9321 14.1801 34.6531 15.5609 34.326C16.3312 34.1436 17.1083 34.0157 17.873 33.8033C18.3676 33.6659 19.3649 33.4184 19.6463 32.9118C19.8493 32.5465 19.6849 31.9617 19.7297 31.5586C19.8305 30.6509 19.7168 29.7435 19.7168 28.8329C19.7168 27.3363 19.6473 25.8813 19.4571 24.398C19.2889 23.086 19.3128 21.6922 19.3128 20.3672C19.3128 18.9106 19.2319 17.3834 19.4571 15.9419C19.667 14.5985 18.6873 13.8659 17.9018 12.9757C17.5719 12.6018 16.8566 12.423 16.4011 12.2798C15.9481 12.1375 15.5828 11.8296 15.1441 11.6834C14.526 11.4774 13.7852 11.4222 13.1431 11.3242C12.252 11.1883 11.3464 10.9779 10.443 10.9779C9.84123 10.9779 9.23949 10.9625 8.64085 11.0356C8.07212 11.1051 7.52838 11.2655 6.96374 11.3531Z" fill="#EDD5B2"/>
<path d="M4.72222 21.375C4.99692 21.375 5.26545 21.2925 5.49385 21.138C5.72225 20.9835 5.90027 20.7639 6.00539 20.5069C6.11051 20.2499 6.13801 19.9672 6.08442 19.6944C6.03083 19.4216 5.89855 19.171 5.70432 18.9744C5.51008 18.7777 5.2626 18.6438 4.99318 18.5895C4.72376 18.5353 4.4445 18.5631 4.19072 18.6695C3.93693 18.776 3.72002 18.9562 3.5674 19.1875C3.41479 19.4187 3.33333 19.6906 3.33333 19.9688C3.33376 20.3416 3.48022 20.699 3.7406 20.9626C4.00097 21.2263 4.354 21.3746 4.72222 21.375ZM4.72222 19.6875C4.77716 19.6875 4.83087 19.704 4.87655 19.7349C4.92223 19.7658 4.95783 19.8097 4.97886 19.8611C4.99988 19.9125 5.00538 19.9691 4.99466 20.0236C4.98394 20.0782 4.95749 20.1283 4.91864 20.1676C4.87979 20.207 4.8303 20.2337 4.77641 20.2446C4.72253 20.2554 4.66668 20.2499 4.61592 20.2286C4.56516 20.2073 4.52178 20.1713 4.49126 20.125C4.46074 20.0788 4.44444 20.0244 4.44444 19.9688C4.44444 19.8942 4.47371 19.8226 4.5258 19.7699C4.5779 19.7171 4.64855 19.6875 4.72222 19.6875Z" fill="#414550"/>
<path d="M6.38889 12.375C6.02066 12.3754 5.66764 12.5237 5.40726 12.7874C5.14689 13.051 5.00042 13.4084 5 13.7812H6.11111C6.11111 13.7067 6.14038 13.6351 6.19247 13.5824C6.24456 13.5296 6.31522 13.5 6.38889 13.5C6.46256 13.5 6.53321 13.5296 6.58531 13.5824C6.6374 13.6351 6.66667 13.7067 6.66667 13.7812H7.77778C7.77736 13.4084 7.63089 13.051 7.37051 12.7874C7.11014 12.5237 6.75712 12.3754 6.38889 12.375Z" fill="#414550"/>
<path d="M10.2778 13.7812C9.90955 13.7817 9.55653 13.93 9.29615 14.1936C9.03578 14.4572 8.88931 14.8147 8.88889 15.1875H10C10 15.1129 10.0293 15.0414 10.0814 14.9886C10.1335 14.9359 10.2041 14.9062 10.2778 14.9062C10.3514 14.9062 10.4221 14.9359 10.4742 14.9886C10.5263 15.0414 10.5556 15.1129 10.5556 15.1875H11.6667C11.6662 14.8147 11.5198 14.4572 11.2594 14.1936C10.999 13.93 10.646 13.7817 10.2778 13.7812Z" fill="#414550"/>
<path d="M14.7222 12.375C14.354 12.3754 14.001 12.5237 13.7406 12.7874C13.4802 13.051 13.3338 13.4084 13.3333 13.7812H14.4444C14.4444 13.7067 14.4737 13.6351 14.5258 13.5824C14.5779 13.5296 14.6486 13.5 14.7222 13.5C14.7959 13.5 14.8665 13.5296 14.9186 13.5824C14.9707 13.6351 15 13.7067 15 13.7812H16.1111C16.1107 13.4084 15.9642 13.051 15.7038 12.7874C15.4435 12.5237 15.0904 12.3754 14.7222 12.375Z" fill="#414550"/>
<path d="M8.05556 25.875C8.33025 25.875 8.59878 25.7925 8.82718 25.638C9.05558 25.4835 9.2336 25.2639 9.33872 25.0069C9.44384 24.7499 9.47135 24.4672 9.41776 24.1944C9.36417 23.9216 9.23189 23.671 9.03765 23.4744C8.84341 23.2777 8.59593 23.1438 8.32652 23.0895C8.0571 23.0353 7.77784 23.0631 7.52405 23.1695C7.27026 23.276 7.05335 23.4562 6.90074 23.6875C6.74812 23.9187 6.66667 24.1906 6.66667 24.4688C6.66709 24.8416 6.81355 25.199 7.07393 25.4626C7.33431 25.7263 7.68733 25.8746 8.05556 25.875ZM8.05556 24.1875C8.1105 24.1875 8.1642 24.204 8.20988 24.2349C8.25556 24.2658 8.29116 24.3097 8.31219 24.3611C8.33321 24.4125 8.33871 24.4691 8.328 24.5236C8.31728 24.5782 8.29082 24.6283 8.25198 24.6676C8.21313 24.707 8.16363 24.7337 8.10975 24.7446C8.05586 24.7554 8.00001 24.7499 7.94925 24.7286C7.8985 24.7073 7.85511 24.6713 7.82459 24.625C7.79407 24.5788 7.77778 24.5244 7.77778 24.4688C7.77778 24.3942 7.80704 24.3226 7.85914 24.2699C7.91123 24.2171 7.98188 24.1875 8.05556 24.1875Z" fill="#414550"/>
<path d="M4.16667 32.0625C4.44136 32.0625 4.70989 31.98 4.93829 31.8255C5.16669 31.671 5.34471 31.4514 5.44983 31.1944C5.55495 30.9374 5.58246 30.6547 5.52887 30.3819C5.47528 30.1091 5.343 29.8585 5.14876 29.6619C4.95452 29.4652 4.70704 29.3313 4.43763 29.277C4.16821 29.2228 3.88895 29.2506 3.63516 29.357C3.38138 29.4635 3.16446 29.6437 3.01185 29.875C2.85923 30.1062 2.77778 30.3781 2.77778 30.6562C2.7782 31.0291 2.92467 31.3865 3.18504 31.6501C3.44542 31.9138 3.79844 32.0621 4.16667 32.0625ZM4.16667 30.375C4.22161 30.375 4.27531 30.3915 4.32099 30.4224C4.36667 30.4533 4.40228 30.4972 4.4233 30.5486C4.44432 30.6 4.44983 30.6566 4.43911 30.7111C4.42839 30.7657 4.40193 30.8158 4.36309 30.8551C4.32424 30.8945 4.27474 30.9212 4.22086 30.9321C4.16698 30.9429 4.11112 30.9374 4.06037 30.9161C4.00961 30.8948 3.96623 30.8588 3.9357 30.8125C3.90518 30.7663 3.88889 30.7119 3.88889 30.6562C3.88889 30.5817 3.91815 30.5101 3.97025 30.4574C4.02234 30.4046 4.093 30.375 4.16667 30.375Z" fill="#414550"/>
<path d="M13.6111 22.5C13.8858 22.5 14.1543 22.4175 14.3827 22.263C14.6111 22.1085 14.7892 21.8889 14.8943 21.6319C14.9994 21.3749 15.0269 21.0922 14.9733 20.8194C14.9197 20.5466 14.7874 20.296 14.5932 20.0994C14.399 19.9027 14.1515 19.7688 13.8821 19.7145C13.6127 19.6603 13.3334 19.6881 13.0796 19.7945C12.8258 19.901 12.6089 20.0812 12.4563 20.3125C12.3037 20.5437 12.2222 20.8156 12.2222 21.0938C12.2226 21.4666 12.3691 21.824 12.6295 22.0876C12.8899 22.3513 13.2429 22.4996 13.6111 22.5ZM13.6111 20.8125C13.6661 20.8125 13.7198 20.829 13.7654 20.8599C13.8111 20.8908 13.8467 20.9347 13.8677 20.9861C13.8888 21.0375 13.8943 21.0941 13.8836 21.1486C13.8728 21.2032 13.8464 21.2533 13.8075 21.2926C13.7687 21.332 13.7192 21.3587 13.6653 21.3696C13.6114 21.3804 13.5556 21.3749 13.5048 21.3536C13.4541 21.3323 13.4107 21.2963 13.3801 21.25C13.3496 21.2038 13.3333 21.1494 13.3333 21.0938C13.3333 21.0192 13.3626 20.9476 13.4147 20.8949C13.4668 20.8421 13.5374 20.8125 13.6111 20.8125Z" fill="#414550"/>
<path d="M16.3889 25.875C16.6636 25.875 16.9321 25.7925 17.1605 25.638C17.3889 25.4835 17.5669 25.2639 17.6721 25.0069C17.7772 24.7499 17.8047 24.4672 17.7511 24.1944C17.6975 23.9216 17.5652 23.671 17.371 23.4744C17.1767 23.2777 16.9293 23.1438 16.6598 23.0895C16.3904 23.0353 16.1112 23.0631 15.8574 23.1695C15.6036 23.276 15.3867 23.4562 15.2341 23.6875C15.0815 23.9187 15 24.1906 15 24.4688C15.0004 24.8416 15.1469 25.199 15.4073 25.4626C15.6676 25.7263 16.0207 25.8746 16.3889 25.875ZM16.3889 24.1875C16.4438 24.1875 16.4975 24.204 16.5432 24.2349C16.5889 24.2658 16.6245 24.3097 16.6455 24.3611C16.6665 24.4125 16.672 24.4691 16.6613 24.5236C16.6506 24.5782 16.6242 24.6283 16.5853 24.6676C16.5465 24.707 16.497 24.7337 16.4431 24.7446C16.3892 24.7554 16.3333 24.7499 16.2826 24.7286C16.2318 24.7073 16.1884 24.6713 16.1579 24.625C16.1274 24.5788 16.1111 24.5244 16.1111 24.4688C16.1111 24.3942 16.1404 24.3226 16.1925 24.2699C16.2446 24.2171 16.3152 24.1875 16.3889 24.1875Z" fill="#414550"/>
<path d="M8.33333 31.2188C8.33333 31.4969 8.41479 31.7688 8.5674 32C8.72002 32.2313 8.93693 32.4115 9.19072 32.518C9.4445 32.6244 9.72376 32.6522 9.99318 32.598C10.2626 32.5437 10.5101 32.4098 10.7043 32.2131C10.8986 32.0165 11.0308 31.7659 11.0844 31.4931C11.138 31.2203 11.1105 30.9376 11.0054 30.6806C10.9003 30.4236 10.7223 30.204 10.4938 30.0495C10.2654 29.895 9.99692 29.8125 9.72222 29.8125C9.354 29.8129 9.00097 29.9612 8.7406 30.2249C8.48022 30.4885 8.33376 30.8459 8.33333 31.2188ZM9.72222 30.9375C9.77716 30.9375 9.83087 30.954 9.87655 30.9849C9.92223 31.0158 9.95783 31.0597 9.97886 31.1111C9.99988 31.1625 10.0054 31.2191 9.99466 31.2736C9.98394 31.3282 9.95749 31.3783 9.91864 31.4176C9.87979 31.457 9.8303 31.4837 9.77641 31.4946C9.72253 31.5054 9.66668 31.4999 9.61592 31.4786C9.56516 31.4573 9.52178 31.4213 9.49126 31.375C9.46074 31.3288 9.44444 31.2744 9.44444 31.2188C9.44444 31.1442 9.47371 31.0726 9.5258 31.0199C9.5779 30.9671 9.64855 30.9375 9.72222 30.9375Z" fill="#414550"/>
<path d="M15.8333 28.6875C15.5586 28.6875 15.2901 28.77 15.0617 28.9245C14.8333 29.079 14.6553 29.2986 14.5502 29.5556C14.445 29.8126 14.4175 30.0953 14.4711 30.3681C14.5247 30.6409 14.657 30.8915 14.8512 31.0881C15.0455 31.2848 15.293 31.4187 15.5624 31.473C15.8318 31.5272 16.1111 31.4994 16.3648 31.393C16.6186 31.2865 16.8355 31.1063 16.9882 30.875C17.1408 30.6438 17.2222 30.3719 17.2222 30.0938C17.2218 29.7209 17.0753 29.3635 16.815 29.0999C16.5546 28.8362 16.2016 28.6879 15.8333 28.6875ZM15.8333 30.375C15.7784 30.375 15.7247 30.3585 15.679 30.3276C15.6333 30.2967 15.5977 30.2528 15.5767 30.2014C15.5557 30.15 15.5502 30.0934 15.5609 30.0389C15.5716 29.9843 15.5981 29.9342 15.6369 29.8949C15.6758 29.8555 15.7253 29.8288 15.7791 29.8179C15.833 29.8071 15.8889 29.8126 15.9396 29.8339C15.9904 29.8552 16.0338 29.8912 16.0643 29.9375C16.0948 29.9837 16.1111 30.0381 16.1111 30.0938C16.1111 30.1683 16.0818 30.2399 16.0298 30.2926C15.9777 30.3454 15.907 30.375 15.8333 30.375Z" fill="#414550"/>
<path d="M10 36C14.9694 36 20 34.8407 20 32.625V9.89205L18.6547 8.52989C19.4978 8.04375 20 7.44975 20 6.75V3.375C20 1.15931 14.9694 0 10 0C5.03063 0 0 1.15931 0 3.375V6.86721H0.00520812C0.0580553 7.51634 0.549722 8.07145 1.34549 8.52989L0 9.89205V32.625C0 34.8407 5.03063 36 10 36ZM3.47854 1.92593C5.21285 1.40941 7.52889 1.125 10 1.125C12.4711 1.125 14.7872 1.40941 16.5215 1.92593C18.3903 2.48245 18.8889 3.0986 18.8889 3.375C18.8889 3.6514 18.3903 4.26755 16.5215 4.82407C14.7872 5.34059 12.4711 5.625 10 5.625C7.52889 5.625 5.21285 5.34059 3.47854 4.82407C1.60972 4.26755 1.11111 3.6514 1.11111 3.375C1.11111 3.0986 1.60972 2.48245 3.47854 1.92593ZM1.11111 6.75V5.01117C2.8666 6.15776 6.44868 6.75 10 6.75C13.5513 6.75 17.1334 6.15776 18.8889 5.01117V6.75C18.8889 7.0264 18.3903 7.64255 16.5215 8.19907C14.7872 8.71559 12.4711 9 10 9C7.52889 9 5.21285 8.71559 3.47854 8.19907C1.60972 7.64255 1.11111 7.0264 1.11111 6.75ZM2.42431 9.02812C4.35299 9.75312 7.18611 10.125 10 10.125C12.8139 10.125 15.647 9.75312 17.5757 9.02812L18.8889 10.358V12.4263C17.1334 11.2797 13.5513 10.6875 10 10.6875C6.44868 10.6875 2.8666 11.2797 1.11111 12.4263V10.358L2.42431 9.02812ZM18.8889 14.0625C18.8889 14.3389 18.3903 14.955 16.5215 15.5116C14.7872 16.0281 12.4711 16.3125 10 16.3125C7.52889 16.3125 5.21285 16.0281 3.47854 15.5116C1.60972 14.955 1.11111 14.3389 1.11111 14.0625C1.11111 13.7861 1.60972 13.17 3.47854 12.6134C5.21285 12.0969 7.52889 11.8125 10 11.8125C12.4711 11.8125 14.7872 12.0969 16.5215 12.6134C18.3903 13.17 18.8889 13.7861 18.8889 14.0625ZM1.11111 15.6987C2.8666 16.8453 6.44868 17.4375 10 17.4375C13.5513 17.4375 17.1334 16.8453 18.8889 15.6987V32.625C18.8889 32.9014 18.3903 33.5175 16.5215 34.0741C14.7872 34.5906 12.4711 34.875 10 34.875C7.52889 34.875 5.21285 34.5906 3.47854 34.0741C1.60972 33.5175 1.11111 32.9014 1.11111 32.625V15.6987Z" fill="#414550"/>
</svg>
