<svg width="36" height="37" viewBox="0 0 36 37" fill="none" xmlns="http://www.w3.org/2000/svg">
<path d="M23.9443 17.5396C25.3662 16.981 26.937 16.6557 28.395 16.1997L28.2414 16.2765C28.6634 16.2765 29.1255 16.5855 29.5301 16.7203C29.9052 16.8454 30.4922 17.1102 30.7761 17.386C31.2799 17.8754 31.7887 18.3945 32.3464 18.8283C33.1517 19.4546 33.8163 20.3026 34.4465 21.1068L34.48 21.1497C34.9106 21.699 35.05 22.1124 35.1713 22.7798C35.306 23.5203 35.297 24.3229 35.3079 25.0755C35.3385 27.1853 35.5383 29.2907 35.5383 31.4081C35.5383 32.2173 35.5776 33.0327 35.4444 33.8319C35.3805 34.2154 35.2497 34.6137 35.039 34.9413C34.8956 35.1644 34.8158 35.1003 34.6166 35.1888C33.681 35.6046 32.4275 35.6895 31.4162 35.8033C30.2688 35.9324 29.0461 35.9236 27.8915 35.9399C26.5793 35.9583 25.2678 36.0167 23.9571 36.0167C20.7107 36.0167 17.3913 35.854 14.1595 35.5387C13.07 35.4324 11.95 35.2838 10.8567 35.2486C10.6407 35.2416 9.52743 35.2704 9.49975 34.9243C9.42091 33.9389 9.26932 32.9419 9.26932 31.9457C9.26932 30.4988 9.19251 29.0597 9.19251 27.6102C9.19251 26.3692 8.95196 25.0469 9.13277 23.8039C9.18345 23.4554 9.03619 22.6904 9.3632 22.464C9.68049 22.2443 10.188 22.0803 10.5751 22.0373C10.9332 21.9975 11.4103 21.5471 11.7102 21.363C12.3804 20.9518 13.067 20.8133 13.8011 20.5779C14.5306 20.3439 15.3529 20.1334 16.1225 20.117C17.0331 20.0976 18.0259 19.6476 18.9132 19.4257C20.0709 19.1363 21.146 18.6457 22.2075 18.12C22.7683 17.8422 23.3689 17.7657 23.9443 17.5396Z" fill="#F1D58E"/>
<path d="M7.7432 14.397C5.44176 14.4859 3.1448 14.3656 0.843676 14.4533L0.797611 14.3611C0.797611 15.2802 0.715986 16.2455 0.83344 17.1558C0.874036 17.4704 0.850192 17.8057 0.807848 18.118C0.751138 18.5362 0.810374 18.9762 0.795052 19.3976C0.764175 20.2467 0.713289 21.098 0.659416 21.9465C0.581353 23.176 0.32964 24.6057 0.843676 25.7622C0.921637 25.9377 1.22058 25.8971 1.37598 25.9337C1.68073 26.0054 1.99092 26.0313 2.29728 26.0975C2.52828 26.1474 2.82051 26.1538 3.05736 26.1538C3.53911 26.1538 4.01456 26.1999 4.49817 26.1999H6.11557C6.60783 26.1999 7.06963 26.0693 7.54358 25.9695C8.11467 25.8493 8.55886 25.5651 9.05349 25.2683C9.26172 25.1434 9.49971 25.1247 9.55253 24.887C9.60284 24.6606 9.59604 24.4345 9.59604 24.196C9.59604 23.7676 9.7306 23.2607 9.94152 22.8857C10.2651 22.3106 10.7701 22.2566 11.2902 21.9619C11.5001 21.8429 11.8086 21.7348 12.04 21.6625C12.3885 21.5536 12.7417 21.5275 13.1021 21.491C13.7558 21.4248 14.509 21.3436 15.0547 20.9382C15.4596 20.6374 15.8633 20.0285 15.9095 19.5204C15.9414 19.1691 15.9422 18.788 15.8148 18.4507C15.709 18.1705 15.7688 17.7891 15.7688 17.4936C15.7688 16.8636 15.7297 16.2383 15.7227 15.61C15.7174 15.1359 15.6441 14.7583 15.4105 14.3611C15.3454 14.2506 15.0335 14.269 14.9165 14.269C14.4123 14.269 13.911 14.2128 13.4015 14.2255C11.5133 14.2727 9.63058 14.3241 7.7432 14.397Z" fill="#C6DAEC"/>
<path d="M34.2 36H3C1.34397 35.998 0.00198364 34.656 0 33V7.2C0.00318146 7.17758 0.00758743 7.15534 0.0131989 7.1334C0.0171356 7.09269 0.025177 7.05249 0.0371971 7.0134C0.0495453 6.97713 0.0654221 6.94217 0.0845985 6.909C0.101482 6.87629 0.121586 6.84533 0.1446 6.8166C0.171268 6.78544 0.201241 6.75728 0.233997 6.7326C0.251999 6.7188 0.263397 6.6996 0.283199 6.687L7.8 2.0646V0.6C7.8 0.268629 8.06863 0 8.4 0C8.73137 0 9 0.268629 9 0.6V2.0646L16.5144 6.6888C16.5342 6.7014 16.545 6.7206 16.563 6.7344C16.6266 6.78116 16.6789 6.84165 16.716 6.9114C16.7347 6.94429 16.7504 6.97884 16.7628 7.0146C16.7747 7.05372 16.7827 7.09391 16.7868 7.1346C16.7925 7.15613 16.7969 7.17796 16.8 7.2V19.134L27.3132 15.8484C27.9261 15.6607 28.5825 15.6697 29.19 15.8742C34.74 17.7408 35.9304 21.8664 35.9784 22.041C35.9825 22.0678 35.9845 22.0949 35.9844 22.122C35.9914 22.1476 35.9967 22.1737 36 22.2V34.2C36 35.1941 35.1941 36 34.2 36ZM16.2 34.8H34.2C34.5314 34.8 34.8 34.5314 34.8 34.2V22.8H9.6V34.2C9.6 34.5314 9.86863 34.8 10.2 34.8H16.2ZM3 34.8H8.5104C8.43933 34.6078 8.40199 34.4049 8.4 34.2V27H1.2V33C1.2 33.9941 2.00589 34.8 3 34.8ZM8.4 3.1044L2.7198 6.6H14.0802L8.4 3.1044ZM15.6 7.8H1.2V13.8H15.6V7.8ZM15.6 15H1.2V25.8H8.4V22.2C8.4 22.1898 8.4054 22.1814 8.406 22.1718C8.40961 22.13 8.41786 22.0888 8.4306 22.0488C8.43797 22.0134 8.44821 21.9787 8.4612 21.945C8.47947 21.9119 8.50076 21.8806 8.5248 21.8514C8.54558 21.8193 8.56949 21.7894 8.5962 21.762C8.62419 21.7394 8.6541 21.7194 8.6856 21.702C8.71997 21.6782 8.75678 21.6581 8.7954 21.642C8.805 21.6384 8.811 21.6306 8.8212 21.6276L15.6 19.509V15ZM28.8072 17.0112C28.4398 16.8865 28.0425 16.8804 27.6714 16.9938L12.9318 21.6H34.5072C33.9264 20.4342 32.4 18.2202 28.8072 17.0112Z" fill="#414550"/>
<path d="M31.8016 24C32.7957 24 33.6016 24.8059 33.6016 25.8C33.6016 26.7941 32.7957 27.6 31.8016 27.6C30.8074 27.6 30.0016 26.7941 30.0016 25.8C30.0016 24.8059 30.8074 24 31.8016 24ZM31.8016 26.4C32.1329 26.4 32.4016 26.1314 32.4016 25.8C32.4016 25.4686 32.1329 25.2 31.8016 25.2C31.4702 25.2 31.2016 25.4686 31.2016 25.8C31.2016 26.1314 31.4702 26.4 31.8016 26.4Z" fill="#414550"/>
<path d="M27.2984 28.1997C28.4582 28.1997 29.3984 29.1399 29.3984 30.2997C29.3984 31.4595 28.4582 32.3997 27.2984 32.3997C26.1386 32.3997 25.1984 31.4595 25.1984 30.2997C25.1984 29.1399 26.1386 28.1997 27.2984 28.1997ZM27.2984 31.1997C27.7955 31.1997 28.1984 30.7968 28.1984 30.2997C28.1984 29.8027 27.7955 29.3997 27.2984 29.3997C26.8014 29.3997 26.3984 29.8027 26.3984 30.2997C26.3984 30.7968 26.8014 31.1997 27.2984 31.1997Z" fill="#414550"/>
<path d="M21.0008 23.4001C21.9949 23.4001 22.8008 24.206 22.8008 25.2001C22.8008 26.1943 21.9949 27.0001 21.0008 27.0001C20.0067 27.0001 19.2008 26.1943 19.2008 25.2001C19.2008 24.206 20.0067 23.4001 21.0008 23.4001ZM21.0008 25.8001C21.3322 25.8001 21.6008 25.5315 21.6008 25.2001C21.6008 24.8688 21.3322 24.6001 21.0008 24.6001C20.6694 24.6001 20.4008 24.8688 20.4008 25.2001C20.4008 25.5315 20.6694 25.8001 21.0008 25.8001Z" fill="#414550"/>
<path d="M13.8031 28.7998C15.1286 28.7998 16.2031 29.8743 16.2031 31.1998C16.2031 32.5253 15.1286 33.5998 13.8031 33.5998C12.4776 33.5998 11.4031 32.5253 11.4031 31.1998C11.4031 29.8743 12.4776 28.7998 13.8031 28.7998ZM13.8031 32.3998C14.4659 32.3998 15.0031 31.8625 15.0031 31.1998C15.0031 30.5371 14.4659 29.9998 13.8031 29.9998C13.1404 29.9998 12.6031 30.5371 12.6031 31.1998C12.6031 31.8625 13.1404 32.3998 13.8031 32.3998Z" fill="#414550"/>
<path d="M27.6002 19.2C27.2688 19.2 27.0002 18.9314 27.0002 18.6C27.0002 18.2686 27.2688 18 27.6002 18C27.9316 18 28.2002 18.2686 28.2002 18.6C28.2002 18.9314 27.9316 19.2 27.6002 19.2Z" fill="#414550"/>
<path d="M25.8014 25.8001C25.47 25.8001 25.2014 25.5315 25.2014 25.2001C25.2014 24.8687 25.47 24.6001 25.8014 24.6001C26.1327 24.6001 26.4014 24.8687 26.4014 25.2001C26.4014 25.5315 26.1327 25.8001 25.8014 25.8001Z" fill="#414550"/>
<path d="M32.4 32.4002C32.0686 32.4002 31.8 32.1316 31.8 31.8002C31.8 31.4688 32.0686 31.2002 32.4 31.2002C32.7314 31.2002 33 31.4688 33 31.8002C33 32.1316 32.7314 32.4002 32.4 32.4002Z" fill="#414550"/>
<path d="M21.0016 32.9998C20.6702 32.9998 20.4016 32.7312 20.4016 32.3998C20.4016 32.0684 20.6702 31.7998 21.0016 31.7998C21.3329 31.7998 21.6016 32.0684 21.6016 32.3998C21.6016 32.7312 21.3329 32.9998 21.0016 32.9998Z" fill="#414550"/>
<path d="M12.5992 25.8001C12.2679 25.8001 11.9992 25.5315 11.9992 25.2001C11.9992 24.8687 12.2679 24.6001 12.5992 24.6001C12.9306 24.6001 13.1992 24.8687 13.1992 25.2001C13.1992 25.5315 12.9306 25.8001 12.5992 25.8001Z" fill="#414550"/>
<path d="M16.8014 28.8001C16.47 28.8001 16.2014 28.5315 16.2014 28.2001C16.2014 27.8687 16.47 27.6001 16.8014 27.6001C17.1327 27.6001 17.4014 27.8687 17.4014 28.2001C17.4014 28.5315 17.1327 28.8001 16.8014 28.8001Z" fill="#414550"/>
<path d="M24.0016 20.3997C23.6702 20.3997 23.4016 20.1311 23.4016 19.7997C23.4016 19.4683 23.6702 19.1997 24.0016 19.1997C24.3329 19.1997 24.6016 19.4683 24.6016 19.7997C24.6016 20.1311 24.3329 20.3997 24.0016 20.3997Z" fill="#414550"/>
<path d="M30.5992 20.3997C30.2678 20.3997 29.9992 20.1311 29.9992 19.7997C29.9992 19.4683 30.2678 19.1997 30.5992 19.1997C30.9306 19.1997 31.1992 19.4683 31.1992 19.7997C31.1992 20.1311 30.9306 20.3997 30.5992 20.3997Z" fill="#414550"/>
<path d="M12.5984 9H13.7984C14.1298 9 14.3984 9.26863 14.3984 9.6C14.3984 9.93137 14.1298 10.2 13.7984 10.2H12.5984C12.2671 10.2 11.9984 9.93137 11.9984 9.6C11.9984 9.26863 12.2671 9 12.5984 9Z" fill="#414550"/>
<path d="M3.6002 9H9.6002C9.93157 9 10.2002 9.26863 10.2002 9.6C10.2002 9.93137 9.93157 10.2 9.6002 10.2H3.6002C3.26883 10.2 3.00021 9.93137 3.00021 9.6C3.00021 9.26863 3.26883 9 3.6002 9Z" fill="#414550"/>
</svg>
