<svg width="31" height="38" viewBox="0 0 31 38" fill="none" xmlns="http://www.w3.org/2000/svg">
<path d="M24.33 10.6395C24.33 10.7277 24.3292 10.7131 24.33 10.6395V10.6395Z" fill="#FFBE5D"/>
<path d="M23.8222 7.37179C23.9435 7.51946 24.0597 7.67375 24.174 7.83629C24.1789 7.84338 24.1838 7.85055 24.1885 7.8578L25.6861 6.79227C26.2838 5.9754 26.7223 4.97818 26.5203 3.94549L26.5182 3.93485C26.3945 3.3026 26.2485 2.55634 25.8583 2.02432C25.4417 1.45622 25.1457 0.725371 24.3031 0.837715C23.4793 0.947555 23.223 1.98011 23.0708 2.62704C22.8832 3.42425 22.8414 4.00167 23.0223 4.79576C23.1014 5.14273 23.1014 5.51288 23.2161 5.85052C23.2983 6.09276 23.4029 6.3041 23.4609 6.55549C23.5249 6.83272 23.6644 7.10974 23.8222 7.37179Z" fill="#FFBE5D"/>
<path d="M24.669 11.1513C25.6838 11.2912 27.008 11.3472 27.8952 10.7557C28.4975 10.3542 28.7958 9.78909 29.211 9.23547C29.3229 9.08625 29.3685 8.98846 29.4316 8.79419C29.5785 8.34243 29.7545 7.90822 29.7545 7.43C29.7545 7.12099 29.7061 6.81548 29.7061 6.50439C29.7061 6.08511 29.1505 5.82364 28.7966 5.82364C28.3839 5.82364 27.9811 5.88579 27.5696 5.92319C26.7359 5.99898 25.9816 6.69135 25.5247 7.3412C25.0263 8.05003 24.6312 8.81351 24.4054 9.65253C24.3443 9.8792 24.3321 10.4516 24.33 10.6395V10.6346C24.33 10.0957 24.3784 9.55549 24.3784 9.01483C24.3784 8.65388 24.3976 8.17753 24.1885 7.8578C24.1838 7.85055 24.1789 7.84338 24.174 7.83629C24.0597 7.67375 23.9435 7.51946 23.8222 7.37179C23.6096 7.11279 23.3815 6.87414 23.1219 6.647C22.8647 6.42199 22.5782 6.28909 22.242 6.22186C21.9083 6.15513 21.6113 5.97412 21.268 5.90974C20.8823 5.83742 20.5135 5.8404 20.1244 5.82095C19.8929 5.80937 19.6005 5.71155 19.3683 5.77789C19.2698 5.80603 19.29 6.19478 19.3038 6.2703C19.3753 6.66399 19.4927 7.03996 19.6697 7.4004C20.0266 8.1274 20.4718 8.84053 21.0608 9.40767C21.5799 9.9076 22.0916 10.2905 22.7371 10.6077C23.192 10.8313 23.5908 11.0258 24.0878 11.1405C24.131 11.1505 24.4625 11.2175 24.33 11.1513H24.669Z" fill="#FFBE5D"/>
<path d="M24.7659 17.0116C25.4204 16.9118 26.0094 16.8396 26.6333 16.6241C26.9208 16.5248 27.4183 16.4007 27.6235 16.1613C28.1559 15.5402 28.4811 14.795 28.9796 14.1541C29.2958 13.7475 29.4979 13.1935 29.5581 12.6822C29.6011 12.3163 29.6394 11.8998 29.2944 11.7082C28.3951 11.2086 27.0885 11.4174 26.1436 11.7324C25.3687 11.9907 25.1458 13.0274 24.9112 13.7182C24.6808 14.3967 24.6206 15.1147 24.6206 15.8277V16.4304C24.6206 16.8604 24.616 15.5636 24.5211 15.1442C24.3497 14.3872 24.0667 13.6811 23.7219 12.9917C23.4145 12.3769 22.6217 12.2232 22.0994 11.875C21.5836 11.5312 20.947 11.4656 20.3478 11.3826C20.052 11.3417 19.7907 11.3159 19.5083 11.4176C18.1316 11.9132 19.573 13.9497 20.1863 14.563C20.8831 15.2598 21.8714 15.6028 22.7156 16.0645C23.2653 16.3651 23.958 16.5214 24.4753 16.8663L24.7659 17.0116Z" fill="#FFBE5D"/>
<path d="M24.7659 22.7267C25.8652 22.5309 27.2779 22.4129 28.1185 21.5536C28.4741 21.1901 28.7336 20.5519 28.8558 20.0629C29.0483 19.293 29.2217 18.5628 29.2217 17.7624C29.2217 17.0909 27.9928 16.9843 27.5373 17.1193C27.1953 17.2206 26.8987 17.3442 26.6311 17.5138C26.6795 17.5042 26.7122 17.5011 26.7032 17.5067C26.5487 17.6043 26.3932 17.7079 26.2412 17.8183C26.1852 17.871 26.1313 17.9258 26.0794 17.9823C26.0686 17.999 26.0577 18.0154 26.0467 18.0314C25.8655 18.295 25.6681 18.5463 25.4746 18.7998C25.2184 19.1976 24.9396 19.6554 24.792 19.8868C24.7703 20.0464 24.7515 20.2115 24.7164 20.3706C24.7819 20.7004 24.7597 21.0326 24.7175 21.3706C24.6936 21.5615 24.6413 21.7744 24.5614 21.9518C24.534 22.0128 24.4682 22.2213 24.4753 22.0379C24.4919 21.6058 24.4887 21.0205 24.6448 20.6145C24.675 20.536 24.6979 20.4541 24.7164 20.3706C24.7063 20.32 24.6942 20.2695 24.6798 20.219C24.5965 19.9273 24.6106 19.6951 24.4161 19.4333C24.1012 19.0093 23.711 18.7215 23.2672 18.4404C22.588 18.0103 21.8034 17.6806 21.015 17.5229C20.5746 17.4348 20.1932 17.2328 19.7773 17.0843C19.4948 16.9834 19.4283 17.1304 19.4383 17.3884C19.4509 17.7162 19.6431 18.06 19.6777 18.3893C19.7153 18.7466 19.891 19.1303 20.0894 19.4279C20.3736 19.8542 20.584 20.2929 20.9397 20.6683C21.3062 21.0553 21.7034 21.3847 22.0913 21.7473C22.4143 22.0492 22.9118 22.238 23.3156 22.4146C23.4513 22.474 24.3072 22.6812 24.2816 22.6299L24.7659 22.7267Z" fill="#FFBE5D"/>
<path d="M9.65975 13.1269C9.69252 13.2088 9.68637 13.1955 9.65975 13.1269V13.1269Z" fill="#FFBE5D"/>
<path d="M7.97358 10.2821C8.14104 10.3741 8.30631 10.4741 8.47277 10.5826C8.48003 10.5873 8.48721 10.5921 8.4943 10.5971L9.48847 9.0512C9.73968 8.07068 9.776 6.98193 9.20452 6.09836L9.19863 6.08925C8.84877 5.54829 8.43581 4.90979 7.87585 4.56094C7.27791 4.18843 6.73138 3.62001 5.99095 4.03753C5.26702 4.44575 5.41292 5.4996 5.5121 6.15675C5.63433 6.96656 5.8102 7.51813 6.27337 8.18805C6.47574 8.48076 6.61335 8.82439 6.84532 9.0952C7.01175 9.28949 7.18739 9.44681 7.3347 9.65862C7.49715 9.8922 7.72963 10.0975 7.97358 10.2821Z" fill="#FFBE5D"/>
<path d="M10.1647 13.4759C11.1588 13.2286 12.4089 12.7883 13.0126 11.9094C13.4225 11.3127 13.4893 10.6772 13.669 10.0089C13.7174 9.82881 13.7233 9.7211 13.7097 9.51726C13.6781 9.04328 13.6801 8.57475 13.5023 8.1308C13.3875 7.84394 13.2289 7.57834 13.1133 7.28954C12.9574 6.90031 12.3445 6.8641 12.0159 6.99567C11.6328 7.1491 11.2819 7.35655 10.9139 7.54422C10.1681 7.92451 9.72526 8.84767 9.54266 9.62081C9.34349 10.4641 9.26057 11.3197 9.36278 12.1826C9.39039 12.4157 9.59179 12.9517 9.65975 13.1269L9.65794 13.1223C9.45759 12.622 9.30172 12.1025 9.10074 11.6006C8.96655 11.2655 8.80729 10.8162 8.4943 10.5971C8.48721 10.5921 8.48003 10.5873 8.47277 10.5826C8.30631 10.4741 8.14104 10.3741 7.97358 10.2821C7.67986 10.1207 7.37941 9.98396 7.05398 9.8696C6.73162 9.75632 6.41618 9.73948 6.07913 9.80203C5.74457 9.86412 5.40156 9.80649 5.05887 9.87437C4.67394 9.95062 4.33268 10.0905 3.96426 10.2171C3.74503 10.2924 3.43724 10.3103 3.24635 10.4582C3.16538 10.5209 3.32863 10.8743 3.36945 10.9393C3.58226 11.2782 3.83102 11.5835 4.12928 11.8524C4.73085 12.3946 5.4093 12.8911 6.16689 13.1986C6.83468 13.4697 7.45203 13.635 8.16919 13.6895C8.67463 13.728 9.1171 13.7603 9.62118 13.682C9.66494 13.6752 9.99759 13.6142 9.84999 13.6019L10.1647 13.4759Z" fill="#FFBE5D"/>
<path d="M12.4332 18.8802C13.0037 18.5442 13.5237 18.2583 14.0227 17.8263C14.2527 17.6273 14.6684 17.3271 14.7699 17.0286C15.0332 16.254 15.0581 15.4414 15.2826 14.661C15.425 14.1661 15.4067 13.5766 15.2725 13.0796C15.1765 12.724 15.0571 12.3231 14.6656 12.2734C13.645 12.1439 12.5097 12.8235 11.7496 13.4672C11.1263 13.9951 11.3048 15.0403 11.3438 15.7688C11.3821 16.4844 11.5932 17.1733 11.8582 17.8352L12.0823 18.3947C12.2422 18.7939 11.7558 17.5918 11.5117 17.2377C11.0712 16.5987 10.546 16.0484 9.96965 15.5365C9.45574 15.08 8.66261 15.2321 8.04831 15.103C7.44168 14.9756 6.82624 15.1514 6.23914 15.2971C5.94935 15.369 5.6972 15.4423 5.47281 15.6417C4.37904 16.6135 6.47421 17.9683 7.2716 18.3096C8.17745 18.6974 9.22243 18.6484 10.1778 18.7632C10.7999 18.8379 11.501 18.7255 12.1095 18.8534L12.4332 18.8802Z" fill="#FFBE5D"/>
<path d="M14.5578 24.1858C15.5055 23.5953 16.7731 22.9606 17.2341 21.8504C17.429 21.3807 17.4326 20.6918 17.3643 20.1925C17.2568 19.4061 17.1464 18.6638 16.8488 17.9207C16.5992 17.2974 15.4187 17.6553 15.0461 17.9499C14.7662 18.1712 14.5368 18.3962 14.3514 18.6531C14.3928 18.6262 14.422 18.6111 14.4158 18.6197C14.3086 18.7677 14.2028 18.9217 14.1027 19.0806C14.0702 19.1504 14.0407 19.2213 14.0135 19.2931C14.0096 19.3126 14.0056 19.3319 14.0013 19.3509C13.9311 19.6629 13.8413 19.9696 13.7559 20.2768C13.6659 20.7414 13.5774 21.27 13.5263 21.5397C13.5655 21.6959 13.6094 21.8562 13.636 22.0169C13.8194 22.2988 13.9223 22.6154 14.0087 22.9449C14.0575 23.1309 14.0881 23.348 14.0799 23.5424C14.0771 23.6092 14.0936 23.8272 14.032 23.6544C13.8868 23.247 13.6662 22.7049 13.6602 22.27C13.659 22.1858 13.6499 22.1013 13.636 22.0169C13.6078 21.9737 13.5778 21.9313 13.5456 21.8898C13.3598 21.65 13.2867 21.4292 13.0088 21.2584C12.5588 20.9819 12.0896 20.8598 11.5731 20.7638C10.7827 20.617 9.93171 20.6026 9.14124 20.7493C8.69964 20.8312 8.27049 20.7855 7.82917 20.8022C7.52944 20.8136 7.52238 20.9748 7.62747 21.2105C7.76106 21.5102 8.0673 21.7579 8.22189 22.0507C8.38961 22.3684 8.69535 22.6594 8.99017 22.8619C9.4125 23.152 9.77087 23.481 10.2406 23.6973C10.7247 23.9202 11.216 24.0784 11.7108 24.2708C12.1229 24.4311 12.6549 24.4213 13.0954 24.4352C13.2435 24.4399 14.1151 24.314 14.0722 24.2759L14.5578 24.1858Z" fill="#FFBE5D"/>
<path d="M25.4439 0.742834L24.9207 0.184292C24.6905 -0.0614307 24.3173 -0.0614307 24.0871 0.184292L23.5639 0.742863C22.2766 2.11709 21.9224 3.95983 22.2361 5.53819C21.7493 5.34405 21.2288 5.24246 20.6937 5.24258C20.1126 5.24237 19.5933 5.24234 19.5933 5.24234C19.2678 5.24231 19.0039 5.52405 19.0039 5.87157L19.0039 7.0462C19.0037 8.30047 19.4613 9.47993 20.2926 10.3674C20.5066 10.5959 20.739 10.7977 20.9858 10.9718C20.889 10.9651 20.7916 10.9614 20.6937 10.9614L19.5933 10.9612C19.2678 10.9612 19.0039 11.2432 19.0039 11.5905L19.0039 12.7651C19.0037 14.0194 19.4613 15.1989 20.2926 16.0863C20.5066 16.3148 20.739 16.5167 20.9859 16.6908C20.889 16.684 20.7917 16.6803 20.6937 16.6804L19.5933 16.6801C19.437 16.6801 19.2871 16.7464 19.1766 16.8644C19.066 16.9824 19.004 17.1424 19.004 17.3093L19.0039 18.484C19.0034 21.0509 20.9482 23.1814 23.4035 23.1809L23.9145 23.1809L23.9145 34.3708C23.9145 34.7183 24.1784 35 24.5039 35C24.8294 35 25.0933 34.7183 25.0933 34.3708L25.0933 23.181L25.6043 23.1811C26.7795 23.1808 27.8843 22.6922 28.715 21.8054C29.0593 21.4379 30.0035 20.3168 30.0039 18.4841L30.0039 17.3093C30.0039 17.1424 29.9418 16.9824 29.8313 16.8644C29.7207 16.7463 29.5708 16.6801 29.4145 16.6801L28.314 16.6801C28.2161 16.6801 28.1189 16.6838 28.0222 16.6906C28.2689 16.5166 28.5011 16.3148 28.715 16.0865C29.5458 15.1996 30.0036 14.02 30.0039 12.7652V11.5904C30.0039 11.2429 29.7397 10.9612 29.4144 10.9612L28.3139 10.9612C28.2161 10.9612 28.1188 10.9649 28.0222 10.9717C28.2689 10.7977 28.5011 10.5959 28.715 10.3676C29.5457 9.4807 30.0036 8.30103 30.0039 7.04629V5.87154C30.0039 5.52405 29.74 5.24231 29.4145 5.24231H28.3139C27.7786 5.24243 27.2581 5.34417 26.7712 5.53843C27.0847 3.96129 26.7331 2.11914 25.4439 0.742834ZM20.1827 7.04632V6.50089C20.3378 6.50092 20.5127 6.50098 20.6936 6.50106C22.4721 6.50065 23.9146 8.03707 23.9142 9.93961L23.9143 10.4847L23.4033 10.4846C21.6405 10.4851 20.1824 8.96283 20.1827 7.04632ZM23.1117 11.7328C23.2084 11.7394 23.3057 11.7431 23.4035 11.7431L25.6042 11.7433C25.702 11.7433 25.7993 11.7396 25.896 11.7329C25.133 12.271 24.7082 12.9305 24.5039 13.3064C24.2989 12.9294 23.874 12.2703 23.1117 11.7328ZM20.1827 12.7652L20.1827 12.2198L20.6936 12.2199C22.4721 12.2195 23.9146 13.7559 23.9142 15.6585L23.9143 16.2035L23.4033 16.2035C21.6408 16.2039 20.1824 14.6821 20.1827 12.7652ZM23.1116 17.4516C23.2084 17.4583 23.3056 17.462 23.4034 17.462L25.6042 17.4622C25.702 17.4622 25.7993 17.4585 25.896 17.4518C25.133 17.9898 24.7082 18.6494 24.5038 19.0254C24.2989 18.6484 23.874 17.9892 23.1116 17.4516ZM23.9142 21.3774L23.9143 21.9225H23.4033C21.641 21.9228 20.1823 20.4012 20.1827 18.4841V17.9387L20.6936 17.9388C22.4721 17.9384 23.9146 19.4748 23.9142 21.3774ZM28.825 18.484C28.8249 19.4026 28.4898 20.266 27.8816 20.9153C27.6272 21.1869 26.8586 21.9223 25.6043 21.9227L25.0932 21.9225L25.0931 21.3773C25.0935 19.478 26.5323 17.9389 28.3141 17.9386L28.8251 17.9386L28.825 18.484ZM28.825 12.7651C28.8246 14.6507 27.3974 16.2034 25.6043 16.2038L25.0932 16.2036L25.0931 15.6584C25.0934 13.7591 26.5322 12.2201 28.314 12.2197L28.8251 12.2197L28.825 12.7651ZM28.314 6.5008H28.825L28.825 7.04617C28.8246 8.93189 27.3972 10.4845 25.6043 10.4849C25.4233 10.4848 25.2483 10.4847 25.0931 10.4847L25.093 9.93946C25.0934 8.04012 26.5323 6.50121 28.314 6.5008ZM24.6101 7.25116L24.5039 7.36453L24.3975 7.25093C22.9415 5.69659 22.9447 3.1836 24.3975 1.6327L24.5039 1.5191L24.6103 1.6327C26.0746 3.19597 26.0523 5.71151 24.6101 7.25116Z" fill="#414550"/>
<path d="M4.65873 3.93591L4.95252 3.21353C5.08177 2.89573 5.44022 2.75217 5.75311 2.89289L6.46437 3.21278C8.21423 3.99978 9.24307 5.58281 9.53154 7.17612C9.92657 6.80772 10.3885 6.51273 10.9024 6.30701C11.4605 6.08328 11.9592 5.88351 11.9592 5.88351C12.2719 5.75827 12.6306 5.91961 12.7605 6.24386L13.1994 7.3398C13.6683 8.50995 13.6695 9.78644 13.2027 10.9342C13.0825 11.2297 12.9348 11.5074 12.7628 11.7648C12.8532 11.7213 12.9454 11.6804 13.0395 11.6428L14.0962 11.2193C14.4089 11.094 14.7677 11.2557 14.8975 11.5796L15.3364 12.6756C15.8053 13.8457 15.8065 15.1223 15.3397 16.27C15.2195 16.5655 15.0718 16.8433 14.8997 17.1006C14.9902 17.0571 15.0824 17.0162 15.1764 16.9786L16.2332 16.5551C16.3833 16.4949 16.5521 16.4991 16.7024 16.5667C16.8526 16.6342 16.972 16.7597 17.0344 16.9154L17.4734 18.0114C18.433 20.4061 17.3613 23.142 15.0029 24.086L14.5121 24.2825L18.6935 34.7228C18.8233 35.0471 18.6752 35.4114 18.3625 35.5366C18.0499 35.6619 17.6911 35.5005 17.5613 35.1763L13.38 24.7361L12.8893 24.9327C11.7604 25.3846 10.5167 25.3537 9.38748 24.8458C8.9195 24.6353 7.59365 23.9526 6.90847 22.2428L6.46948 21.1467C6.40712 20.991 6.40693 20.8178 6.46899 20.6652C6.53108 20.5125 6.65031 20.393 6.80045 20.3329L7.85748 19.9096C7.95142 19.8719 8.04622 19.838 8.14163 19.8071C7.83963 19.7397 7.54123 19.6408 7.25048 19.51C6.12118 19.0021 5.24061 18.0776 4.77149 16.907L4.33251 15.8109C4.20265 15.4867 4.35111 15.1222 4.6635 14.9971L5.72049 14.5737C5.81443 14.5361 5.90927 14.5022 6.00464 14.4713C5.70265 14.4038 5.40425 14.3049 5.11349 14.1742C3.98419 13.6663 3.10359 12.7418 2.63448 11.5712L2.19551 10.4751C2.06564 10.1509 2.21383 9.78655 2.52648 9.66133L3.58353 9.23798C4.09771 9.03217 4.63567 8.92687 5.17583 8.92085C4.28547 7.56992 3.9348 5.71593 4.65873 3.93591ZM12.0672 7.79336L11.8634 7.28446C11.7144 7.34416 11.5465 7.41149 11.3728 7.48116C9.66449 8.16489 8.85313 10.1533 9.56443 11.9282L9.76802 12.4368L10.2588 12.2402C11.9521 11.5625 12.7837 9.58134 12.0672 7.79336ZM11.0053 13.2925C10.9149 13.336 10.8229 13.3768 10.7289 13.4144L8.61535 14.2612C8.52138 14.2988 8.42657 14.3327 8.33116 14.3637C9.26508 14.5722 9.91945 15.0241 10.2562 15.2963C10.3122 14.8657 10.474 14.0873 11.0053 13.2925ZM14.2042 13.1291L14.0005 12.6203L13.5098 12.8169C11.8015 13.5006 10.9901 15.489 11.7015 17.264L11.905 17.7725L12.3958 17.5759C14.0887 16.8984 14.9209 14.9175 14.2042 13.1291ZM13.1424 18.6283C13.052 18.6717 12.9599 18.7126 12.8659 18.7502L10.7524 19.597C10.6584 19.6346 10.5636 19.6685 10.4682 19.6994C11.4021 19.908 12.0565 20.3599 12.3933 20.6321C12.4492 20.2015 12.611 19.4231 13.1424 18.6283ZM13.8384 22.5998L14.042 23.1083L14.5328 22.9118C16.2256 22.2342 17.058 20.2535 16.3413 18.4649L16.1375 17.9561L15.6468 18.1527C13.9385 18.8364 13.1272 20.8248 13.8384 22.5998ZM8.04068 21.7892C8.38409 22.6462 9.02854 23.3229 9.85526 23.6947C10.2012 23.8503 11.2141 24.2408 12.419 23.7586L12.9098 23.5619L12.7062 23.0531C11.9961 21.2812 10.0391 20.3987 8.32763 21.0838L7.83681 21.2803L8.04068 21.7892ZM5.90367 16.4534C6.60864 18.2125 8.55961 19.1122 10.282 18.4228L10.7728 18.2261L10.5692 17.7173C9.85913 15.9454 7.90216 15.063 6.19066 15.748L5.69985 15.9446L5.90367 16.4534ZM4.05366 10.4122L3.5629 10.6088L3.76669 11.1176C4.47168 12.8769 6.42288 13.7763 8.14501 13.087C8.31879 13.0173 8.48687 12.95 8.63587 12.8902L8.43221 12.3815C7.7221 10.6096 5.76505 9.72724 4.05366 10.4122ZM7.89153 9.68752L8.03589 9.75245L8.09564 9.60552C8.91322 7.59525 7.97108 5.25184 5.99626 4.36366L5.8516 4.2986L5.79184 4.44553C4.96957 6.46735 5.93102 8.80578 7.89153 9.68752Z" fill="#414550"/>
</svg>
