<svg width="234" height="45" viewBox="0 0 234 45" fill="none" xmlns="http://www.w3.org/2000/svg">
<path d="M12.04 26.8152C12.04 25.0018 13.5101 23.5317 15.3235 23.5317H31.4674C33.2808 23.5317 34.7509 25.0018 34.7509 26.8152V33.9295C34.7509 35.7429 33.2808 37.213 31.4674 37.213H15.3235C13.5101 37.213 12.04 35.7429 12.04 33.9295V26.8152Z" fill="#7055DC"/>
<path d="M12.313 3.28349C12.313 1.47007 13.7831 0 15.5965 0H27.3623C29.1757 0 30.6458 1.47007 30.6458 3.28349V15.0493C30.6458 16.8628 29.1757 18.3328 27.3623 18.3328H15.5965C13.7831 18.3328 12.313 16.8628 12.313 15.0493V3.28349Z" fill="#58CAA8"/>
<path d="M0 13.9549C0 12.1415 1.47007 10.6714 3.28349 10.6714H21.6163C23.4297 10.6714 24.8998 12.1415 24.8998 13.9549V29.0042C24.8998 30.8176 23.4297 32.2877 21.6163 32.2877H3.28349C1.47006 32.2877 0 30.8176 0 29.0042V13.9549Z" fill="#EC348C"/>
<path d="M30.6436 23.5315C30.6436 21.7181 32.1136 20.248 33.927 20.248H36.3897C38.2031 20.248 39.6732 21.7181 39.6732 23.5315V26.2678C39.6732 28.0812 38.2031 29.5513 36.3897 29.5513H33.927C32.1136 29.5513 30.6436 28.0812 30.6436 26.2678V23.5315Z" fill="#FF9900"/>
<path d="M69.3837 13.7666C68.2574 11.7016 66.2161 10.7084 63.5374 10.7084C62.1328 10.7084 60.8869 11.0255 59.7995 11.6598C58.7122 12.2941 57.8627 13.2003 57.251 14.3782C56.6394 15.5562 56.3336 16.9154 56.3336 18.4559C56.3336 20.0416 56.6394 21.4235 57.251 22.6014C57.8853 23.7794 58.7575 24.6856 59.8675 25.3199C60.9775 25.9541 62.2688 26.2713 63.7412 26.2713C67.3106 26.2713 69.7755 24.1938 70.3205 20.8005H62.3141V17.1646H75.1586C75.425 22.2453 73.7346 26.8706 69.0761 29.2955C67.4451 30.1337 65.6101 30.5528 63.5713 30.5528C61.2833 30.5528 59.2106 30.0431 57.353 29.0237C55.518 27.9816 54.0682 26.5431 53.0035 24.7082C51.9615 22.8733 51.4404 20.7892 51.4404 18.4559C51.4404 16.1226 51.9615 14.0384 53.0035 12.2035C54.0682 10.3459 55.518 8.90745 57.353 7.88804C59.2106 6.84599 61.272 6.32496 63.5374 6.32496C66.2105 6.32496 68.5324 6.98191 70.5033 8.2958C72.4741 9.58705 73.8333 11.4107 74.5809 13.7666H69.3837Z" fill="#202124"/>
<path d="M87.0373 30.6547C85.225 30.6547 83.594 30.2583 82.1441 29.4654C80.6943 28.6499 79.5503 27.5059 78.7121 26.0334C77.8966 24.561 77.4889 22.862 77.4889 20.9364C77.4889 19.0109 77.9079 17.3119 78.7461 15.8394C79.607 14.3669 80.7736 13.2343 82.2461 12.4414C83.7185 11.6259 85.3609 11.2181 87.1732 11.2181C88.9855 11.2181 90.6278 11.6259 92.1003 12.4414C93.5728 13.2343 94.7281 14.3669 95.5663 15.8394C96.4271 17.3119 96.8575 19.0109 96.8575 20.9364C96.8575 22.862 96.4158 24.561 95.5323 26.0334C94.6715 27.5059 93.4935 28.6499 91.9984 29.4654C90.5259 30.2583 88.8722 30.6547 87.0373 30.6547ZM87.0373 26.5092C87.8981 26.5092 88.7023 26.3053 89.4499 25.8975C90.2201 25.4671 90.8317 24.8328 91.2848 23.9946C91.7379 23.1565 91.9644 22.137 91.9644 20.9364C91.9644 19.1468 91.4887 17.7763 90.5372 16.8248C89.6084 15.8507 88.4644 15.3637 87.1052 15.3637C85.746 15.3637 84.602 15.8507 83.6732 16.8248C82.7671 17.7763 82.314 19.1468 82.314 20.9364C82.314 22.726 82.7558 24.1079 83.6393 25.082C84.5454 26.0334 85.6781 26.5092 87.0373 26.5092Z" fill="#202124"/>
<path d="M108.706 30.6547C106.894 30.6547 105.263 30.2583 103.813 29.4654C102.363 28.6499 101.219 27.5059 100.381 26.0334C99.5656 24.561 99.1578 22.862 99.1578 20.9364C99.1578 19.0109 99.5769 17.3119 100.415 15.8394C101.276 14.3669 102.443 13.2343 103.915 12.4414C105.388 11.6259 107.03 11.2181 108.842 11.2181C110.654 11.2181 112.297 11.6259 113.769 12.4414C115.242 13.2343 116.397 14.3669 117.235 15.8394C118.096 17.3119 118.527 19.0109 118.527 20.9364C118.527 22.862 118.085 24.561 117.201 26.0334C116.34 27.5059 115.162 28.6499 113.667 29.4654C112.195 30.2583 110.541 30.6547 108.706 30.6547ZM108.706 26.5092C109.567 26.5092 110.371 26.3053 111.119 25.8975C111.889 25.4671 112.501 24.8328 112.954 23.9946C113.407 23.1565 113.633 22.137 113.633 20.9364C113.633 19.1468 113.158 17.7763 112.206 16.8248C111.277 15.8507 110.133 15.3637 108.774 15.3637C107.415 15.3637 106.271 15.8507 105.342 16.8248C104.436 17.7763 103.983 19.1468 103.983 20.9364C103.983 22.726 104.425 24.1079 105.308 25.082C106.214 26.0334 107.347 26.5092 108.706 26.5092Z" fill="#202124"/>
<path d="M120.793 20.8685C120.793 18.9656 121.167 17.2779 121.914 15.8054C122.684 14.3329 123.726 13.2003 125.04 12.4074C126.354 11.6145 127.815 11.2181 129.424 11.2181C130.647 11.2181 131.814 11.4899 132.924 12.0336C134.034 12.5546 134.917 13.2569 135.574 14.1404V5.20361H140.399V30.3489H135.574V27.5625C134.985 28.4913 134.158 29.2389 133.094 29.8052C132.029 30.3716 130.794 30.6547 129.39 30.6547C127.804 30.6547 126.354 30.247 125.04 29.4314C123.726 28.6159 122.684 27.4719 121.914 25.9995C121.167 24.5043 120.793 22.794 120.793 20.8685ZM135.608 20.9364C135.608 19.7811 135.382 18.7957 134.929 17.9801C134.475 17.142 133.864 16.5077 133.094 16.0773C132.323 15.6242 131.497 15.3977 130.613 15.3977C129.73 15.3977 128.914 15.6129 128.167 16.0433C127.419 16.4737 126.807 17.108 126.332 17.9462C125.879 18.7617 125.652 19.7358 125.652 20.8685C125.652 22.0011 125.879 22.9979 126.332 23.8587C126.807 24.6969 127.419 25.3425 128.167 25.7956C128.937 26.2486 129.752 26.4752 130.613 26.4752C131.497 26.4752 132.323 26.26 133.094 25.8296C133.864 25.3765 134.475 24.7422 134.929 23.9267C135.382 23.0885 135.608 22.0917 135.608 20.9364Z" fill="#202124"/>
<path d="M149.501 26.1014H158.166V30.3489H144.743V5.20361H149.501V26.1014Z" fill="#202124"/>
<path d="M159.39 20.8685C159.39 18.9656 159.764 17.2779 160.511 15.8054C161.282 14.3329 162.312 13.2003 163.604 12.4074C164.917 11.6145 166.379 11.2181 167.987 11.2181C169.392 11.2181 170.615 11.5013 171.657 12.0676C172.722 12.6339 173.571 13.3475 174.205 14.2083V11.5239H178.997V30.3489H174.205V27.5965C173.594 28.48 172.744 29.2162 171.657 29.8052C170.592 30.3716 169.358 30.6547 167.953 30.6547C166.367 30.6547 164.917 30.247 163.604 29.4314C162.312 28.6159 161.282 27.4719 160.511 25.9995C159.764 24.5043 159.39 22.794 159.39 20.8685ZM174.205 20.9364C174.205 19.7811 173.979 18.7957 173.526 17.9801C173.073 17.142 172.461 16.5077 171.691 16.0773C170.921 15.6242 170.094 15.3977 169.21 15.3977C168.327 15.3977 167.511 15.6129 166.764 16.0433C166.016 16.4737 165.405 17.108 164.929 17.9462C164.476 18.7617 164.249 19.7358 164.249 20.8685C164.249 22.0011 164.476 22.9979 164.929 23.8587C165.405 24.6969 166.016 25.3425 166.764 25.7956C167.534 26.2486 168.349 26.4752 169.21 26.4752C170.094 26.4752 170.921 26.26 171.691 25.8296C172.461 25.3765 173.073 24.7422 173.526 23.9267C173.979 23.0885 174.205 22.0917 174.205 20.9364Z" fill="#202124"/>
<path d="M188.098 14.2763C188.709 13.3702 189.548 12.6339 190.612 12.0676C191.7 11.5013 192.934 11.2181 194.316 11.2181C195.925 11.2181 197.374 11.6145 198.666 12.4074C199.98 13.2003 201.01 14.3329 201.758 15.8054C202.528 17.2552 202.913 18.9429 202.913 20.8685C202.913 22.794 202.528 24.5043 201.758 25.9995C201.01 27.4719 199.98 28.6159 198.666 29.4314C197.374 30.247 195.925 30.6547 194.316 30.6547C192.912 30.6547 191.677 30.3829 190.612 29.8392C189.57 29.2729 188.732 28.548 188.098 27.6645V30.3489H183.341V5.20361H188.098V14.2763ZM198.054 20.8685C198.054 19.7358 197.816 18.7617 197.34 17.9462C196.887 17.108 196.276 16.4737 195.505 16.0433C194.758 15.6129 193.942 15.3977 193.059 15.3977C192.198 15.3977 191.383 15.6242 190.612 16.0773C189.865 16.5077 189.253 17.142 188.777 17.9801C188.324 18.8183 188.098 19.8037 188.098 20.9364C188.098 22.0691 188.324 23.0545 188.777 23.8927C189.253 24.7309 189.865 25.3765 190.612 25.8296C191.383 26.26 192.198 26.4752 193.059 26.4752C193.942 26.4752 194.758 26.2486 195.505 25.7956C196.276 25.3425 196.887 24.6969 197.34 23.8587C197.816 23.0205 198.054 22.0238 198.054 20.8685Z" fill="#202124"/>
<path d="M213.264 30.6547C211.723 30.6547 210.341 30.3829 209.118 29.8392C207.895 29.2729 206.921 28.514 206.196 27.5625C205.494 26.6111 205.109 25.5577 205.041 24.4024H209.832C209.922 25.1273 210.273 25.7276 210.885 26.2033C211.519 26.6791 212.301 26.9169 213.23 26.9169C214.136 26.9169 214.838 26.7357 215.337 26.3732C215.858 26.0108 216.118 25.5464 216.118 24.98C216.118 24.3684 215.801 23.9153 215.167 23.6208C214.555 23.3037 213.57 22.9639 212.21 22.6014C210.806 22.2616 209.651 21.9105 208.744 21.5481C207.861 21.1856 207.091 20.6306 206.434 19.883C205.799 19.1355 205.482 18.1274 205.482 16.8588C205.482 15.8167 205.777 14.8653 206.366 14.0045C206.977 13.1436 207.838 12.464 208.948 11.9657C210.081 11.4673 211.406 11.2181 212.924 11.2181C215.167 11.2181 216.956 11.7844 218.293 12.9171C219.629 14.0271 220.366 15.5336 220.501 17.4365H215.948C215.88 16.6889 215.563 16.0999 214.997 15.6695C214.453 15.2164 213.717 14.9899 212.788 14.9899C211.927 14.9899 211.259 15.1485 210.783 15.4656C210.33 15.7828 210.104 16.2245 210.104 16.7908C210.104 17.4251 210.421 17.9122 211.055 18.252C211.689 18.5691 212.675 18.8976 214.011 19.2374C215.371 19.5772 216.492 19.9283 217.375 20.2908C218.259 20.6532 219.018 21.2196 219.652 21.9898C220.309 22.7374 220.649 23.7341 220.671 24.98C220.671 26.0674 220.366 27.0415 219.754 27.9023C219.165 28.7632 218.304 29.4428 217.171 29.9411C216.061 30.4169 214.759 30.6547 213.264 30.6547Z" fill="#202124"/>
<path d="M225.141 5.20361V6.00461H224.033V9.30798H223.014V6.00461H221.906V5.20361H225.141Z" fill="#202124"/>
<path d="M230.389 5.20361V9.30798H229.37V6.84653L228.435 9.30798H227.612L226.671 6.84068V9.30798H225.652V5.20361H226.856L228.029 8.0451L229.191 5.20361H230.389Z" fill="#202124"/>
<path d="M146.988 44.478C146.532 44.478 146.122 44.3999 145.758 44.2438C145.394 44.0811 145.108 43.8534 144.899 43.5606C144.691 43.2679 144.587 42.9263 144.587 42.5359H145.778C145.804 42.8287 145.918 43.0694 146.119 43.2581C146.327 43.4468 146.617 43.5411 146.988 43.5411C147.372 43.5411 147.671 43.45 147.886 43.2679C148.1 43.0792 148.208 42.8385 148.208 42.5457C148.208 42.318 148.139 42.1326 148.003 41.9894C147.873 41.8463 147.707 41.7357 147.505 41.6576C147.31 41.5795 147.037 41.495 146.685 41.4039C146.243 41.2868 145.882 41.1697 145.602 41.0526C145.329 40.9289 145.094 40.7403 144.899 40.4865C144.704 40.2328 144.607 39.8945 144.607 39.4716C144.607 39.0812 144.704 38.7397 144.899 38.4469C145.094 38.1541 145.368 37.9297 145.719 37.7735C146.07 37.6174 146.477 37.5393 146.939 37.5393C147.596 37.5393 148.133 37.7052 148.549 38.037C148.972 38.3623 149.206 38.8112 149.252 39.3838H148.022C148.003 39.1365 147.886 38.9251 147.671 38.7494C147.456 38.5738 147.173 38.4859 146.822 38.4859C146.503 38.4859 146.243 38.5672 146.041 38.7299C145.839 38.8925 145.739 39.1268 145.739 39.4325C145.739 39.6407 145.8 39.8132 145.924 39.9498C146.054 40.0799 146.217 40.184 146.412 40.2621C146.607 40.3401 146.874 40.4247 147.212 40.5158C147.661 40.6394 148.025 40.763 148.305 40.8866C148.591 41.0103 148.832 41.2022 149.027 41.4624C149.229 41.7162 149.33 42.0577 149.33 42.4871C149.33 42.832 149.236 43.1573 149.047 43.463C148.865 43.7688 148.595 44.0161 148.237 44.2047C147.886 44.3869 147.469 44.478 146.988 44.478ZM157.152 38.9446C157.575 38.9446 157.952 39.0324 158.284 39.2081C158.622 39.3838 158.886 39.644 159.074 39.9888C159.27 40.3336 159.367 40.75 159.367 41.238V44.4097H158.264V41.4039C158.264 40.9224 158.144 40.5548 157.903 40.3011C157.663 40.0409 157.334 39.9107 156.918 39.9107C156.501 39.9107 156.17 40.0409 155.922 40.3011C155.682 40.5548 155.561 40.9224 155.561 41.4039V44.4097H154.458V41.4039C154.458 40.9224 154.338 40.5548 154.097 40.3011C153.857 40.0409 153.528 39.9107 153.112 39.9107C152.695 39.9107 152.364 40.0409 152.116 40.3011C151.876 40.5548 151.755 40.9224 151.755 41.4039V44.4097H150.643V39.0324H151.755V39.6472C151.937 39.426 152.168 39.2536 152.448 39.13C152.728 39.0064 153.027 38.9446 153.346 38.9446C153.775 38.9446 154.159 39.0357 154.497 39.2179C154.836 39.4 155.096 39.6635 155.278 40.0083C155.441 39.683 155.695 39.426 156.039 39.2374C156.384 39.0422 156.755 38.9446 157.152 38.9446ZM160.412 41.6967C160.412 41.1566 160.523 40.6785 160.744 40.2621C160.972 39.8457 161.277 39.5236 161.661 39.2959C162.052 39.0617 162.481 38.9446 162.949 38.9446C163.372 38.9446 163.74 39.0292 164.052 39.1983C164.371 39.361 164.625 39.5659 164.813 39.8132V39.0324H165.936V44.4097H164.813V43.6094C164.625 43.8632 164.368 44.0746 164.042 44.2438C163.717 44.4129 163.346 44.4975 162.93 44.4975C162.468 44.4975 162.045 44.3804 161.661 44.1462C161.277 43.9055 160.972 43.5736 160.744 43.1507C160.523 42.7214 160.412 42.2367 160.412 41.6967ZM164.813 41.7162C164.813 41.3453 164.735 41.0233 164.579 40.75C164.43 40.4768 164.231 40.2686 163.984 40.1254C163.737 39.9823 163.47 39.9107 163.184 39.9107C162.897 39.9107 162.631 39.9823 162.383 40.1254C162.136 40.2621 161.935 40.467 161.778 40.7403C161.629 41.007 161.554 41.3258 161.554 41.6967C161.554 42.0675 161.629 42.3928 161.778 42.6726C161.935 42.9523 162.136 43.167 162.383 43.3167C162.637 43.4598 162.904 43.5314 163.184 43.5314C163.47 43.5314 163.737 43.4598 163.984 43.3167C164.231 43.1735 164.43 42.9653 164.579 42.6921C164.735 42.4123 164.813 42.087 164.813 41.7162ZM168.51 39.8132C168.672 39.5399 168.887 39.3285 169.154 39.1788C169.427 39.0227 169.749 38.9446 170.12 38.9446V40.0962H169.837C169.401 40.0962 169.069 40.2068 168.841 40.428C168.62 40.6492 168.51 41.033 168.51 41.5795V44.4097H167.397V39.0324H168.51V39.8132ZM172.44 39.94V42.9165C172.44 43.1182 172.486 43.2646 172.577 43.3557C172.675 43.4403 172.837 43.4826 173.065 43.4826H173.748V44.4097H172.87C172.369 44.4097 171.985 44.2926 171.718 44.0583C171.451 43.8241 171.318 43.4435 171.318 42.9165V39.94H170.684V39.0324H171.318V37.6954H172.44V39.0324H173.748V39.94H172.44ZM179.563 39.94H178.567V44.4097H177.445V39.94H176.811V39.0324H177.445V38.6518C177.445 38.0338 177.608 37.5848 177.933 37.3051C178.265 37.0188 178.782 36.8757 179.485 36.8757V37.8028C179.146 37.8028 178.909 37.8678 178.772 37.998C178.636 38.1216 178.567 38.3395 178.567 38.6518V39.0324H179.563V39.94ZM182.881 44.4975C182.374 44.4975 181.915 44.3836 181.505 44.1559C181.095 43.9217 180.773 43.5964 180.539 43.18C180.305 42.7571 180.188 42.2692 180.188 41.7162C180.188 41.1697 180.308 40.685 180.549 40.2621C180.79 39.8392 181.118 39.5139 181.534 39.2862C181.951 39.0585 182.416 38.9446 182.93 38.9446C183.444 38.9446 183.909 39.0585 184.326 39.2862C184.742 39.5139 185.071 39.8392 185.311 40.2621C185.552 40.685 185.672 41.1697 185.672 41.7162C185.672 42.2627 185.549 42.7474 185.301 43.1703C185.054 43.5932 184.716 43.9217 184.287 44.1559C183.864 44.3836 183.395 44.4975 182.881 44.4975ZM182.881 43.5314C183.168 43.5314 183.434 43.463 183.681 43.3264C183.935 43.1898 184.14 42.9848 184.296 42.7116C184.452 42.4383 184.531 42.1065 184.531 41.7162C184.531 41.3258 184.456 40.9973 184.306 40.7305C184.156 40.4573 183.958 40.2523 183.711 40.1157C183.464 39.9791 183.197 39.9107 182.911 39.9107C182.624 39.9107 182.358 39.9791 182.11 40.1157C181.87 40.2523 181.678 40.4573 181.534 40.7305C181.391 40.9973 181.32 41.3258 181.32 41.7162C181.32 42.2952 181.466 42.7441 181.759 43.0629C182.058 43.3752 182.432 43.5314 182.881 43.5314ZM187.885 39.8132C188.047 39.5399 188.262 39.3285 188.529 39.1788C188.802 39.0227 189.124 38.9446 189.495 38.9446V40.0962H189.212C188.776 40.0962 188.444 40.2068 188.216 40.428C187.995 40.6492 187.885 41.033 187.885 41.5795V44.4097H186.772V39.0324H187.885V39.8132ZM197.027 38.9446C197.45 38.9446 197.827 39.0324 198.159 39.2081C198.497 39.3838 198.761 39.644 198.949 39.9888C199.145 40.3336 199.242 40.75 199.242 41.238V44.4097H198.139V41.4039C198.139 40.9224 198.019 40.5548 197.778 40.3011C197.538 40.0409 197.209 39.9107 196.793 39.9107C196.376 39.9107 196.044 40.0409 195.797 40.3011C195.556 40.5548 195.436 40.9224 195.436 41.4039V44.4097H194.333V41.4039C194.333 40.9224 194.213 40.5548 193.972 40.3011C193.732 40.0409 193.403 39.9107 192.987 39.9107C192.57 39.9107 192.238 40.0409 191.991 40.3011C191.75 40.5548 191.63 40.9224 191.63 41.4039V44.4097H190.518V39.0324H191.63V39.6472C191.812 39.426 192.043 39.2536 192.323 39.13C192.603 39.0064 192.902 38.9446 193.221 38.9446C193.65 38.9446 194.034 39.0357 194.372 39.2179C194.711 39.4 194.971 39.6635 195.153 40.0083C195.316 39.683 195.569 39.426 195.914 39.2374C196.259 39.0422 196.63 38.9446 197.027 38.9446ZM205.528 39.0324V44.4097H204.415V43.7753C204.239 43.9965 204.008 44.1722 203.722 44.3023C203.442 44.4259 203.143 44.4877 202.824 44.4877C202.401 44.4877 202.021 44.3999 201.683 44.2242C201.351 44.0486 201.087 43.7883 200.892 43.4435C200.703 43.0987 200.609 42.6823 200.609 42.1944V39.0324H201.712V42.0285C201.712 42.5099 201.832 42.8807 202.073 43.141C202.314 43.3947 202.642 43.5216 203.059 43.5216C203.475 43.5216 203.803 43.3947 204.044 43.141C204.291 42.8807 204.415 42.5099 204.415 42.0285V39.0324H205.528ZM208.108 37.188V44.4097H206.995V37.188H208.108ZM209.198 41.6967C209.198 41.1566 209.308 40.6785 209.53 40.2621C209.757 39.8457 210.063 39.5236 210.447 39.2959C210.837 39.0617 211.267 38.9446 211.735 38.9446C212.158 38.9446 212.526 39.0292 212.838 39.1983C213.157 39.361 213.41 39.5659 213.599 39.8132V39.0324H214.721V44.4097H213.599V43.6094C213.41 43.8632 213.154 44.0746 212.828 44.2438C212.503 44.4129 212.132 44.4975 211.716 44.4975C211.254 44.4975 210.831 44.3804 210.447 44.1462C210.063 43.9055 209.757 43.5736 209.53 43.1507C209.308 42.7214 209.198 42.2367 209.198 41.6967ZM213.599 41.7162C213.599 41.3453 213.521 41.0233 213.365 40.75C213.215 40.4768 213.017 40.2686 212.77 40.1254C212.522 39.9823 212.256 39.9107 211.969 39.9107C211.683 39.9107 211.416 39.9823 211.169 40.1254C210.922 40.2621 210.72 40.467 210.564 40.7403C210.414 41.007 210.34 41.3258 210.34 41.6967C210.34 42.0675 210.414 42.3928 210.564 42.6726C210.72 42.9523 210.922 43.167 211.169 43.3167C211.423 43.4598 211.69 43.5314 211.969 43.5314C212.256 43.5314 212.522 43.4598 212.77 43.3167C213.017 43.1735 213.215 42.9653 213.365 42.6921C213.521 42.4123 213.599 42.087 213.599 41.7162ZM218.135 44.4975C217.712 44.4975 217.331 44.4227 216.993 44.273C216.661 44.1169 216.397 43.9087 216.202 43.6485C216.007 43.3817 215.903 43.0857 215.89 42.7604H217.042C217.061 42.9881 217.168 43.18 217.364 43.3362C217.565 43.4858 217.816 43.5606 218.115 43.5606C218.427 43.5606 218.668 43.5021 218.837 43.385C219.013 43.2614 219.101 43.1052 219.101 42.9165C219.101 42.7148 219.003 42.5652 218.808 42.4676C218.619 42.37 218.317 42.2627 217.9 42.1456C217.497 42.035 217.168 41.9276 216.915 41.8235C216.661 41.7194 216.44 41.56 216.251 41.3453C216.069 41.1306 215.978 40.8476 215.978 40.4963C215.978 40.21 216.062 39.9498 216.232 39.7156C216.401 39.4748 216.641 39.2862 216.954 39.1495C217.272 39.0129 217.637 38.9446 218.047 38.9446C218.658 38.9446 219.149 39.1007 219.52 39.413C219.898 39.7188 220.099 40.1385 220.125 40.672H219.013C218.993 40.4312 218.896 40.2393 218.72 40.0962C218.544 39.953 218.307 39.8815 218.008 39.8815C217.715 39.8815 217.49 39.9368 217.334 40.0474C217.178 40.158 217.1 40.3044 217.1 40.4865C217.1 40.6297 217.152 40.75 217.256 40.8476C217.36 40.9452 217.487 41.0233 217.637 41.0818C217.786 41.1339 218.008 41.2022 218.3 41.2868C218.691 41.3909 219.01 41.4982 219.257 41.6088C219.511 41.7129 219.729 41.8691 219.911 42.0773C220.093 42.2854 220.187 42.562 220.194 42.9068C220.194 43.2126 220.109 43.4858 219.94 43.7265C219.771 43.9673 219.53 44.1559 219.218 44.2926C218.912 44.4292 218.551 44.4975 218.135 44.4975Z" fill="#202124"/>
</svg>
