<svg width="222" height="102" viewBox="0 0 222 102" fill="none" xmlns="http://www.w3.org/2000/svg">
<path opacity="0.6" d="M1 1L25.4444 25.5283L49.8889 1L74.3333 25.5283L98.7778 1L123.222 25.5283L147.667 1L172.111 25.5283L196.556 1L221 25.5283M1 19.8679L25.4444 44.3962L49.8889 19.8679L74.3333 44.3962L98.7778 19.8679L123.222 44.3962L147.667 19.8679L172.111 44.3962L196.556 19.8679L221 44.3962M1 38.7358L25.4444 63.2641L49.8889 38.7358L74.3333 63.2641L98.7778 38.7358L123.222 63.2641L147.667 38.7358L172.111 63.2641L196.556 38.7358L221 63.2641M1 57.6038L25.4444 82.1321L49.8889 57.6038L74.3333 82.1321L98.7778 57.6038L123.222 82.1321L147.667 57.6038L172.111 82.1321L196.556 57.6038L221 82.1321M1 76.4717L25.4444 101L49.8889 76.4717L74.3333 101L98.7778 76.4717L123.222 101L147.667 76.4717L172.111 101L196.556 76.4717L221 101" stroke="#CDC2B6"/>
</svg>
