<svg width="120" height="16" viewBox="0 0 120 16" fill="none" xmlns="http://www.w3.org/2000/svg">
<path d="M8 0L10.022 5.21698L15.6085 5.52786L11.2716 9.06302L12.7023 14.4721L8 11.44L3.29772 14.4721L4.72837 9.06302L0.391548 5.52786L5.97802 5.21698L8 0Z" fill="#FF9900"/>
<path d="M34 0L36.022 5.21698L41.6085 5.52786L37.2716 9.06302L38.7023 14.4721L34 11.44L29.2977 14.4721L30.7284 9.06302L26.3915 5.52786L31.978 5.21698L34 0Z" fill="#FF9900"/>
<path d="M60 0L62.022 5.21698L67.6085 5.52786L63.2716 9.06302L64.7023 14.4721L60 11.44L55.2977 14.4721L56.7284 9.06302L52.3915 5.52786L57.978 5.21698L60 0Z" fill="#FF9900"/>
<path d="M86 0L88.022 5.21698L93.6085 5.52786L89.2716 9.06302L90.7023 14.4721L86 11.44L81.2977 14.4721L82.7284 9.06302L78.3915 5.52786L83.978 5.21698L86 0Z" fill="#FF9900"/>
<path d="M112 0L114.022 5.21698L119.608 5.52786L115.272 9.06302L116.702 14.4721L112 11.44L107.298 14.4721L108.728 9.06302L104.392 5.52786L109.978 5.21698L112 0Z" fill="#FF9900"/>
</svg>
