<svg width="120" height="16" viewBox="0 0 120 16" fill="none" xmlns="http://www.w3.org/2000/svg">
<path d="M8 0L10.022 5.21698L15.6085 5.52786L11.2716 9.06302L12.7023 14.4721L8 11.44L3.29772 14.4721L4.72837 9.06302L0.391548 5.52786L5.97802 5.21698L8 0Z" fill="#FF9900"/>
<path d="M34 0L36.022 5.21698L41.6085 5.52786L37.2716 9.06302L38.7023 14.4721L34 11.44L29.2977 14.4721L30.7284 9.06302L26.3915 5.52786L31.978 5.21698L34 0Z" fill="#FF9900"/>
<path d="M60 0L62.022 5.21698L67.6085 5.52786L63.2716 9.06302L64.7023 14.4721L60 11.44L55.2977 14.4721L56.7284 9.06302L52.3915 5.52786L57.978 5.21698L60 0Z" fill="#FF9900"/>
<path d="M86 0L88.022 5.21698L93.6085 5.52786L89.2716 9.06302L90.7023 14.4721L86 11.44L81.2977 14.4721L82.7284 9.06302L78.3915 5.52786L83.978 5.21698L86 0Z" fill="#FF9900"/>
<path d="M112 1.38357L113.556 5.39767L113.672 5.69829L113.994 5.71621L118.293 5.95541L114.956 8.67546L114.706 8.87917L114.788 9.19087L115.889 13.3528L112.271 11.0198L112 10.8451L111.729 11.0198L108.111 13.3528L109.212 9.19087L109.294 8.87917L109.044 8.67546L105.707 5.95541L110.006 5.71621L110.328 5.69829L110.444 5.39767L112 1.38357Z" fill="#FAF2DF" stroke="#FF9900"/>
</svg>
