<svg width="120" height="17" viewBox="0 0 120 17" fill="none" xmlns="http://www.w3.org/2000/svg">
<path d="M8 1.88357L9.55577 5.89767L9.67229 6.19829L9.9942 6.21621L14.2926 6.45541L10.9557 9.17546L10.7058 9.37917L10.7883 9.69087L11.889 13.8528L8.27096 11.5198L8 11.3451L7.72904 11.5198L4.11096 13.8528L5.21174 9.69087L5.29418 9.37917L5.04428 9.17546L1.7074 6.45541L6.0058 6.21621L6.32771 6.19829L6.44423 5.89767L8 1.88357Z" fill="#FFFDFA" stroke="#AAAAAA"/>
<path d="M34 1.88357L35.5558 5.89767L35.6723 6.19829L35.9942 6.21621L40.2926 6.45541L36.9557 9.17546L36.7058 9.37917L36.7883 9.69087L37.889 13.8528L34.271 11.5198L34 11.3451L33.729 11.5198L30.111 13.8528L31.2117 9.69087L31.2942 9.37917L31.0443 9.17546L27.7074 6.45541L32.0058 6.21621L32.3277 6.19829L32.4442 5.89767L34 1.88357Z" fill="#FFFDFA" stroke="#AAAAAA"/>
<path d="M60 1.88357L61.5558 5.89767L61.6723 6.19829L61.9942 6.21621L66.2926 6.45541L62.9557 9.17546L62.7058 9.37917L62.7883 9.69087L63.889 13.8528L60.271 11.5198L60 11.3451L59.729 11.5198L56.111 13.8528L57.2117 9.69087L57.2942 9.37917L57.0443 9.17546L53.7074 6.45541L58.0058 6.21621L58.3277 6.19829L58.4442 5.89767L60 1.88357Z" fill="#FFFDFA" stroke="#AAAAAA"/>
<path d="M86 1.88357L87.5558 5.89767L87.6723 6.19829L87.9942 6.21621L92.2926 6.45541L88.9557 9.17546L88.7058 9.37917L88.7883 9.69087L89.889 13.8528L86.271 11.5198L86 11.3451L85.729 11.5198L82.111 13.8528L83.2117 9.69087L83.2942 9.37917L83.0443 9.17546L79.7074 6.45541L84.0058 6.21621L84.3277 6.19829L84.4442 5.89767L86 1.88357Z" fill="#FFFDFA" stroke="#AAAAAA"/>
<path d="M112 1.88357L113.556 5.89767L113.672 6.19829L113.994 6.21621L118.293 6.45541L114.956 9.17546L114.706 9.37917L114.788 9.69087L115.889 13.8528L112.271 11.5198L112 11.3451L111.729 11.5198L108.111 13.8528L109.212 9.69087L109.294 9.37917L109.044 9.17546L105.707 6.45541L110.006 6.21621L110.328 6.19829L110.444 5.89767L112 1.88357Z" fill="#FFFDFA" stroke="#AAAAAA"/>
</svg>
